<svg id="d70eeeaf-221d-4467-bd07-b2646b0d423c" data-name="Слой 1" xmlns="http://www.w3.org/2000/svg"
     viewBox="0 0 72.17 71.21">
    <defs>
        <style>.\30 b94cb78-5365-4f6f-8396-a631f6df02f0,.\33 3067aaa-bdb8-4346-86e9-28de2ca6242a{fill:#000d88;}.\33
            3067aaa-bdb8-4346-86e9-28de2ca6242a{stroke:#fff;stroke-miterlimit:10;stroke-width:0.9px;}.\34
            e25ce44-95e2-438d-8bd4-d5b4fb5237f9{opacity:0.38;}.e9140192-91d8-4cdf-8b4d-3114f1919d34{fill:none;}.c0ebd679-c571-40da-946b-6b902dd24d98{fill:#1e0e00;fill-rule:evenodd;}
        </style>
    </defs>
    <path class="33067aaa-bdb8-4346-86e9-28de2ca6242a"
          d="M334,2138.22l2.8,2.79a1.77,1.77,0,0,1,.62,1.85,1.7,1.7,0,0,1-3,.61c-1.64-1.62-3.25-3.26-4.88-4.87-0.79-.78-1.61-1.52-2.46-2.32,0.25-.31.37-0.5,0.53-0.66l6.78-6.78a1.69,1.69,0,1,1,2.52,2.24c-0.83.92-1.74,1.77-2.61,2.66-0.2.2-.38,0.42-0.69,0.75,1,0.16,1.94.29,2.83,0.44a29.06,29.06,0,0,1,23.27,23.3,28.6,28.6,0,0,1-5.9,23.46,27.25,27.25,0,0,1-19,10.54c-2.77.3-5.58,0.17-8.38,0.21s-5.75,0-8.63,0c-2.37,0-4.75,0-7.12,0l-8.63,0c-1,0-2.06,0-3.09-.05a1.57,1.57,0,0,1-1.48-1.4,1.63,1.63,0,0,1,1.07-1.82,3.82,3.82,0,0,1,1.17-.15c10.57,0,21.14,0,31.71,0a25.8,25.8,0,0,0,25.11-22,25.61,25.61,0,0,0-20.68-28.75c-0.59-.11-1.18-0.18-1.77-0.27Z"
          transform="translate(-296.5 -2127.71)"/>
    <path class="33067aaa-bdb8-4346-86e9-28de2ca6242a"
          d="M343.46,2192.43c2.12-1.1,4.17-2.18,6.23-3.22a2.51,2.51,0,0,1,1.08-.16h10.89l0.07-.21-1.75-1.78c-0.54-.54-1.1-1.07-1.62-1.63a1.65,1.65,0,0,1,0-2.29,1.58,1.58,0,0,1,2.33,0c1.32,1.25,2.6,2.55,3.89,3.83l2.91,2.91c0.2,0.2.38,0.43,0.62,0.71-0.2.24-.36,0.47-0.56,0.67l-6.39,6.39-0.11.11c-0.95.9-1.93,1-2.65,0.23s-0.6-1.72.32-2.64a29.44,29.44,0,0,0,2.66-2.89H343.46Z"
          transform="translate(-296.5 -2127.71)"/>
    <path class="0b94cb78-5365-4f6f-8396-a631f6df02f0"
          d="M324.78,2170.68h-2.22l7-16.52h2.37l7,16.52h-2.37l-2.14-5.2H329l0.59-1.73h4.16l-3.09-7.49Z"
          transform="translate(-296.5 -2127.71)"/>
    <g class="4e25ce44-95e2-438d-8bd4-d5b4fb5237f9">
        <path class="e9140192-91d8-4cdf-8b4d-3114f1919d34"
              d="M320.75,2130.11c-0.86.33-1.32,0.53-1.93,0.8s-1.12.52-1.66,0.8c-1.09.55-2.14,1.13-3.17,1.77a41.54,41.54,0,0,0-5.94,4.33l9.86,11.29a26.62,26.62,0,0,1,3.87-2.81c0.69-.43,1.42-0.83,2.14-1.19,0.36-.19.72-0.35,1.08-0.52l0.87-.37Z"
              transform="translate(-296.5 -2127.71)"/>
        <path class="c0ebd679-c571-40da-946b-6b902dd24d98"
              d="M315.76,2141.93l-0.88-1.22c-0.61.48-1.25,0.91-1.83,1.42l1,1.16C314.56,2142.8,315.18,2142.38,315.76,2141.93Z"
              transform="translate(-296.5 -2127.71)"/>
        <path class="c0ebd679-c571-40da-946b-6b902dd24d98"
              d="M319.12,2139.78l-0.74-1.3c-0.67.38-1.32,0.79-2,1.2l0.82,1.26C317.85,2140.54,318.47,2140.14,319.12,2139.78Z"
              transform="translate(-296.5 -2127.71)"/>
        <path class="c0ebd679-c571-40da-946b-6b902dd24d98"
              d="M322.67,2138l-0.59-1.38c-0.72.31-1.41,0.64-2.1,1l0.68,1.34C321.32,2138.6,322,2138.29,322.67,2138Z"
              transform="translate(-296.5 -2127.71)"/>
        <path class="e9140192-91d8-4cdf-8b4d-3114f1919d34"
              d="M308.06,2137.81a34,34,0,0,0-5.23,5.66,30.23,30.23,0,0,0-2.18,3.38c-0.35.57-.61,1.23-0.91,1.84a18,18,0,0,0-.81,1.9l14,5.26a6.05,6.05,0,0,1,.39-0.89,7.51,7.51,0,0,1,.43-0.89,15.24,15.24,0,0,1,1.12-1.72,19.06,19.06,0,0,1,3-3.24Z"
              transform="translate(-296.5 -2127.71)"/>
        <path class="c0ebd679-c571-40da-946b-6b902dd24d98"
              d="M307.74,2150.62l-1.31-.73c-0.42.67-.69,1.41-1,2.12l1.38,0.59C307.11,2151.94,307.35,2151.24,307.74,2150.62Z"
              transform="translate(-296.5 -2127.71)"/>
        <polygon class="c0ebd679-c571-40da-946b-6b902dd24d98"
                 points="13.45 19.63 12.28 18.68 10.89 20.57 12.14 21.41 13.45 19.63"/>
        <path class="c0ebd679-c571-40da-946b-6b902dd24d98"
              d="M312.66,2144.46l-1-1.1c-0.55.55-1.13,1.06-1.64,1.65l1.1,1C311.58,2145.47,312.14,2145,312.66,2144.46Z"
              transform="translate(-296.5 -2127.71)"/>
        <path class="e9140192-91d8-4cdf-8b4d-3114f1919d34"
              d="M298.93,2150.59a35.16,35.16,0,0,0-1.14,3.78c-0.13.57-.28,1.13-0.4,1.72l-0.33,1.77a37.62,37.62,0,0,0-.56,7.5l15-.42a22.72,22.72,0,0,1,.36-4.6,27.83,27.83,0,0,1,1.11-4.5Z"
              transform="translate(-296.5 -2127.71)"/>
        <path class="c0ebd679-c571-40da-946b-6b902dd24d98"
              d="M304.62,2162l-1.49-.12c0,0.78-.11,1.55-0.1,2.33h1.5C304.52,2163.52,304.6,2162.78,304.62,2162Z"
              transform="translate(-296.5 -2127.71)"/>
        <path class="c0ebd679-c571-40da-946b-6b902dd24d98"
              d="M305.19,2158.1l-1.47-.29c-0.12.76-.31,1.51-0.38,2.28l1.49,0.2C304.9,2159.55,305.07,2158.83,305.19,2158.1Z"
              transform="translate(-296.5 -2127.71)"/>
        <polygon class="c0ebd679-c571-40da-946b-6b902dd24d98"
                 points="9.67 26.54 8.25 26.08 7.88 27.2 7.61 28.32 9.07 28.67 9.33 27.59 9.67 26.54"/>
        <path class="e9140192-91d8-4cdf-8b4d-3114f1919d34"
              d="M296.52,2165.36a30.79,30.79,0,0,0,4.42,15.16l12.88-7.68a15.6,15.6,0,0,1-2.31-7.9Z"
              transform="translate(-296.5 -2127.71)"/>
        <path class="c0ebd679-c571-40da-946b-6b902dd24d98"
              d="M306.42,2173.67l-1.37.6a23.13,23.13,0,0,0,1,2.1l1.31-.72A21.64,21.64,0,0,1,306.42,2173.67Z"
              transform="translate(-296.5 -2127.71)"/>
        <path class="c0ebd679-c571-40da-946b-6b902dd24d98"
              d="M305.15,2169.93l-1.46.35a23.39,23.39,0,0,0,.67,2.25l1.42-.49A21.93,21.93,0,0,1,305.15,2169.93Z"
              transform="translate(-296.5 -2127.71)"/>
        <path class="c0ebd679-c571-40da-946b-6b902dd24d98"
              d="M304.57,2166l-1.5.09c0.09,0.78.12,1.56,0.26,2.33l1.48-.23C304.68,2167.51,304.66,2166.77,304.57,2166Z"
              transform="translate(-296.5 -2127.71)"/>
        <path class="e9140192-91d8-4cdf-8b4d-3114f1919d34"
              d="M300.93,2180.52a47,47,0,0,0,9.44,10.94l9.88-11.29a32.43,32.43,0,0,1-6.44-7.33Z"
              transform="translate(-296.5 -2127.71)"/>
        <path class="c0ebd679-c571-40da-946b-6b902dd24d98"
              d="M313.38,2183.29l-1.05,1.07c0.53,0.56,1.12,1,1.67,1.57l1-1.11C314.47,2184.31,313.89,2183.83,313.38,2183.29Z"
              transform="translate(-296.5 -2127.71)"/>
        <polygon class="c0ebd679-c571-40da-946b-6b902dd24d98"
                 points="14.16 52.66 13.01 53.62 14.54 55.35 15.64 54.32 14.16 52.66"/>
        <path class="c0ebd679-c571-40da-946b-6b902dd24d98"
              d="M308.31,2177.18L307,2178c0.45,0.63.84,1.31,1.33,1.91l1.2-.9C309.1,2178.42,308.73,2177.78,308.31,2177.18Z"
              transform="translate(-296.5 -2127.71)"/>
    </g>
</svg>