<svg id="cb09ff9a-5fee-455d-bb72-b5783788d847" data-name="Слой 1" xmlns="http://www.w3.org/2000/svg" viewBox="0 0 69.35 62.55"><defs><style>.\32 1a0e30e-1b0f-4274-ad8b-f15da24bd94b{opacity:0.3;}.\30 c325b27-d43e-484c-ab5c-5513f0307444,.\31 71d6551-7838-400f-a2d0-50e2b5903fa7,.\34 66086e6-21f6-41b7-8611-a01abb7b1efc,.\34 66ea1dd-1833-4c81-9275-a98df63947ef,.\36 7545193-2197-4d4d-b452-1e879ea15408,.c0af3780-6874-4d7b-a36f-75270f04f3ef,.e135d244-769b-4db8-b5a2-24087bb60e34{fill:none;}.\35 921841c-e1f4-436a-80fd-02cdf1fd9bba,.d434cdbc-5ade-4588-b103-ec9854316d63{fill:#1e0e00;}.d434cdbc-5ade-4588-b103-ec9854316d63{fill-rule:evenodd;}.\34 2cb3b11-fef3-4ea1-b6da-d49a86043293,.\37 32951a4-4746-43fd-9b4b-16c05e736812,.a556ac13-848c-45e4-9d61-1b966995a15b{fill:#fff;}.\34 2cb3b11-fef3-4ea1-b6da-d49a86043293,.a556ac13-848c-45e4-9d61-1b966995a15b{stroke:#142951;}.\30 c325b27-d43e-484c-ab5c-5513f0307444,.\31 71d6551-7838-400f-a2d0-50e2b5903fa7,.\34 2cb3b11-fef3-4ea1-b6da-d49a86043293,.\34 66086e6-21f6-41b7-8611-a01abb7b1efc,.\34 66ea1dd-1833-4c81-9275-a98df63947ef,.\36 7545193-2197-4d4d-b452-1e879ea15408,.\37 32951a4-4746-43fd-9b4b-16c05e736812,.a556ac13-848c-45e4-9d61-1b966995a15b,.e135d244-769b-4db8-b5a2-24087bb60e34{stroke-miterlimit:10;}.\34 2cb3b11-fef3-4ea1-b6da-d49a86043293{stroke-width:0.49px;}.\32 0c4989c-04f6-4a47-9846-06b38f8e9ddf{fill:#101038;}.\30 c325b27-d43e-484c-ab5c-5513f0307444,.\31 71d6551-7838-400f-a2d0-50e2b5903fa7,.\34 66086e6-21f6-41b7-8611-a01abb7b1efc,.\34 66ea1dd-1833-4c81-9275-a98df63947ef,.\36 7545193-2197-4d4d-b452-1e879ea15408,.e135d244-769b-4db8-b5a2-24087bb60e34{stroke:#fff;}.\36 7545193-2197-4d4d-b452-1e879ea15408{stroke-width:0.46px;}.\34 66ea1dd-1833-4c81-9275-a98df63947ef{stroke-width:0.12px;}.\37 1a1ca68-9c51-4047-8854-450e2eccc3d7{fill:#151556;}.\30 c325b27-d43e-484c-ab5c-5513f0307444{stroke-width:0.97px;}.\34 66086e6-21f6-41b7-8611-a01abb7b1efc{stroke-width:0.24px;}.\31 7230185-e4f2-4cce-936d-ab3660292723{fill:#000d8f;}.\37 32951a4-4746-43fd-9b4b-16c05e736812{stroke:#00244c;stroke-width:0.48px;}.e135d244-769b-4db8-b5a2-24087bb60e34{stroke-width:0.49px;}.\31 71d6551-7838-400f-a2d0-50e2b5903fa7{stroke-width:0.12px;}.a556ac13-848c-45e4-9d61-1b966995a15b{stroke-width:0.46px;}.a23be7e4-f3c8-462f-847e-7ef04c8711c7{opacity:0.07;}</style></defs><g class="21a0e30e-1b0f-4274-ad8b-f15da24bd94b"><rect class="c0af3780-6874-4d7b-a36f-75270f04f3ef" x="2.72" y="36.99" width="14.28" height="11.28"/><rect class="5921841c-e1f4-436a-80fd-02cdf1fd9bba" x="9.35" y="37.82" width="1.43" height="2.09"/><rect class="5921841c-e1f4-436a-80fd-02cdf1fd9bba" x="9.35" y="41.58" width="1.43" height="2.09"/><rect class="5921841c-e1f4-436a-80fd-02cdf1fd9bba" x="9.35" y="45.32" width="1.43" height="2.09"/><rect class="c0af3780-6874-4d7b-a36f-75270f04f3ef" x="2.72" y="25.7" width="14.28" height="11.28"/><rect class="5921841c-e1f4-436a-80fd-02cdf1fd9bba" x="9.35" y="26.54" width="1.43" height="2.09"/><rect class="5921841c-e1f4-436a-80fd-02cdf1fd9bba" x="9.35" y="30.29" width="1.43" height="2.09"/><rect class="5921841c-e1f4-436a-80fd-02cdf1fd9bba" x="9.35" y="34.04" width="1.43" height="2.09"/><rect class="c0af3780-6874-4d7b-a36f-75270f04f3ef" x="2.72" y="14.42" width="14.28" height="11.28"/><rect class="5921841c-e1f4-436a-80fd-02cdf1fd9bba" x="9.35" y="15.25" width="1.43" height="2.09"/><rect class="5921841c-e1f4-436a-80fd-02cdf1fd9bba" x="9.35" y="19.01" width="1.43" height="2.09"/><rect class="5921841c-e1f4-436a-80fd-02cdf1fd9bba" x="9.35" y="22.75" width="1.43" height="2.09"/><rect class="c0af3780-6874-4d7b-a36f-75270f04f3ef" x="16.99" y="0.14" width="12.21" height="14.28"/><rect class="5921841c-e1f4-436a-80fd-02cdf1fd9bba" x="26.03" y="6.78" width="2.27" height="1.43"/><rect class="5921841c-e1f4-436a-80fd-02cdf1fd9bba" x="21.97" y="6.78" width="2.27" height="1.43"/><rect class="5921841c-e1f4-436a-80fd-02cdf1fd9bba" x="17.92" y="6.78" width="2.27" height="1.43"/><rect class="c0af3780-6874-4d7b-a36f-75270f04f3ef" x="29.2" y="0.14" width="12.21" height="14.28"/><rect class="5921841c-e1f4-436a-80fd-02cdf1fd9bba" x="38.24" y="6.78" width="2.27" height="1.43"/><rect class="5921841c-e1f4-436a-80fd-02cdf1fd9bba" x="34.18" y="6.78" width="2.27" height="1.43"/><rect class="5921841c-e1f4-436a-80fd-02cdf1fd9bba" x="30.13" y="6.78" width="2.27" height="1.43"/><rect class="c0af3780-6874-4d7b-a36f-75270f04f3ef" x="41.41" y="0.14" width="12.21" height="14.28"/><rect class="5921841c-e1f4-436a-80fd-02cdf1fd9bba" x="50.45" y="6.78" width="2.27" height="1.43"/><rect class="5921841c-e1f4-436a-80fd-02cdf1fd9bba" x="46.39" y="6.78" width="2.27" height="1.43"/><rect class="5921841c-e1f4-436a-80fd-02cdf1fd9bba" x="42.34" y="6.78" width="2.27" height="1.43"/><rect class="c0af3780-6874-4d7b-a36f-75270f04f3ef" x="53.62" y="14.42" width="14.28" height="11.28"/><rect class="5921841c-e1f4-436a-80fd-02cdf1fd9bba" x="59.84" y="22.77" width="1.43" height="2.09"/><rect class="5921841c-e1f4-436a-80fd-02cdf1fd9bba" x="59.84" y="19.02" width="1.43" height="2.09"/><rect class="5921841c-e1f4-436a-80fd-02cdf1fd9bba" x="59.84" y="15.27" width="1.43" height="2.09"/><rect class="c0af3780-6874-4d7b-a36f-75270f04f3ef" x="53.62" y="25.7" width="14.28" height="11.28"/><rect class="5921841c-e1f4-436a-80fd-02cdf1fd9bba" x="59.84" y="34.06" width="1.43" height="2.09"/><rect class="5921841c-e1f4-436a-80fd-02cdf1fd9bba" x="59.84" y="30.3" width="1.43" height="2.09"/><rect class="5921841c-e1f4-436a-80fd-02cdf1fd9bba" x="59.84" y="26.56" width="1.43" height="2.09"/><rect class="c0af3780-6874-4d7b-a36f-75270f04f3ef" x="53.62" y="36.99" width="14.28" height="11.28"/><rect class="5921841c-e1f4-436a-80fd-02cdf1fd9bba" x="59.84" y="45.34" width="1.43" height="2.09"/><rect class="5921841c-e1f4-436a-80fd-02cdf1fd9bba" x="59.84" y="41.58" width="1.43" height="2.09"/><rect class="5921841c-e1f4-436a-80fd-02cdf1fd9bba" x="59.84" y="37.84" width="1.43" height="2.09"/><rect class="c0af3780-6874-4d7b-a36f-75270f04f3ef" x="41.41" y="48.27" width="12.21" height="14.28"/><rect class="5921841c-e1f4-436a-80fd-02cdf1fd9bba" x="42.31" y="54.48" width="2.27" height="1.43"/><rect class="5921841c-e1f4-436a-80fd-02cdf1fd9bba" x="46.38" y="54.48" width="2.27" height="1.43"/><rect class="5921841c-e1f4-436a-80fd-02cdf1fd9bba" x="50.43" y="54.48" width="2.27" height="1.43"/><rect class="c0af3780-6874-4d7b-a36f-75270f04f3ef" x="29.2" y="48.27" width="12.21" height="14.28"/><rect class="5921841c-e1f4-436a-80fd-02cdf1fd9bba" x="30.1" y="54.48" width="2.27" height="1.43"/><rect class="5921841c-e1f4-436a-80fd-02cdf1fd9bba" x="34.17" y="54.48" width="2.27" height="1.43"/><rect class="5921841c-e1f4-436a-80fd-02cdf1fd9bba" x="38.22" y="54.48" width="2.27" height="1.43"/><rect class="c0af3780-6874-4d7b-a36f-75270f04f3ef" x="16.99" y="48.27" width="12.21" height="14.28"/><rect class="5921841c-e1f4-436a-80fd-02cdf1fd9bba" x="17.89" y="54.48" width="2.27" height="1.43"/><rect class="5921841c-e1f4-436a-80fd-02cdf1fd9bba" x="21.96" y="54.48" width="2.27" height="1.43"/><rect class="5921841c-e1f4-436a-80fd-02cdf1fd9bba" x="26.01" y="54.48" width="2.27" height="1.43"/><rect class="5921841c-e1f4-436a-80fd-02cdf1fd9bba" x="9.25" y="11.06" width="1.43" height="2.38"/><polygon class="d434cdbc-5ade-4588-b103-ec9854316d63" points="9.25 6.78 9.25 9.15 10.68 9.15 10.68 8.2 11.63 8.2 11.63 6.78 9.25 6.78"/><rect class="5921841c-e1f4-436a-80fd-02cdf1fd9bba" x="13.53" y="6.77" width="2.38" height="1.43"/><rect class="5921841c-e1f4-436a-80fd-02cdf1fd9bba" x="54.6" y="6.67" width="2.38" height="1.43"/><polygon class="d434cdbc-5ade-4588-b103-ec9854316d63" points="61.26 6.67 58.88 6.67 58.88 8.11 59.84 8.11 59.84 9.05 61.26 9.05 61.26 6.67"/><rect class="5921841c-e1f4-436a-80fd-02cdf1fd9bba" x="59.84" y="10.96" width="1.43" height="2.38"/><rect class="5921841c-e1f4-436a-80fd-02cdf1fd9bba" x="59.93" y="49.25" width="1.43" height="2.38"/><polygon class="d434cdbc-5ade-4588-b103-ec9854316d63" points="61.36 55.91 61.36 53.53 59.93 53.53 59.93 54.49 58.98 54.49 58.98 55.91 61.36 55.91"/><rect class="5921841c-e1f4-436a-80fd-02cdf1fd9bba" x="54.7" y="54.49" width="2.38" height="1.43"/><rect class="5921841c-e1f4-436a-80fd-02cdf1fd9bba" x="13.63" y="54.58" width="2.38" height="1.43"/><polygon class="d434cdbc-5ade-4588-b103-ec9854316d63" points="9.35 56.01 11.73 56.01 11.73 54.58 10.78 54.58 10.78 53.63 9.35 53.63 9.35 56.01"/><rect class="5921841c-e1f4-436a-80fd-02cdf1fd9bba" x="9.35" y="49.35" width="1.43" height="2.38"/></g><circle class="42cb3b11-fef3-4ea1-b6da-d49a86043293" cx="60.3" cy="52.46" r="8.81"/><polygon class="20c4989c-04f6-4a47-9846-06b38f8e9ddf" points="57.12 50.92 57.12 54.35 60.09 56.07 63.06 54.35 63.06 50.92 60.09 49.21 57.12 50.92"/><polyline class="67545193-2197-4d4d-b452-1e879ea15408" points="60.29 56.2 60.3 52.47 57.14 50.7"/><line class="67545193-2197-4d4d-b452-1e879ea15408" x1="60.35" y1="52.4" x2="63.21" y2="50.67"/><path class="466ea1dd-1833-4c81-9275-a98df63947ef" d="M1626.46,717.42" transform="translate(-1566.17 -664.46)"/><polygon class="71a1ca68-9c51-4047-8854-450e2eccc3d7" points="28.89 28.14 28.89 35.33 35.12 38.93 41.35 35.33 41.35 28.14 35.12 24.54 28.89 28.14"/><polyline class="0c325b27-d43e-484c-ab5c-5513f0307444" points="35.55 39.21 35.56 31.39 28.95 27.67"/><line class="0c325b27-d43e-484c-ab5c-5513f0307444" x1="35.67" y1="31.24" x2="41.67" y2="27.62"/><path class="466086e6-21f6-41b7-8611-a01abb7b1efc" d="M1601.72,696.87" transform="translate(-1566.17 -664.46)"/><polygon class="17230185-e4f2-4cce-936d-ab3660292723" points="11.14 5.4 7.71 5.4 5.99 8.37 7.71 11.34 11.14 11.34 12.85 8.37 11.14 5.4"/><polyline class="67545193-2197-4d4d-b452-1e879ea15408" points="5.86 8.57 9.59 8.58 11.36 5.43"/><line class="67545193-2197-4d4d-b452-1e879ea15408" x1="9.66" y1="8.63" x2="11.39" y2="11.49"/><path class="466ea1dd-1833-4c81-9275-a98df63947ef" d="M1575.28,673" transform="translate(-1566.17 -664.46)"/><polygon class="732951a4-4746-43fd-9b4b-16c05e736812" points="14.19 0.24 4.92 0.24 0.28 8.27 4.92 16.3 14.19 16.3 18.83 8.27 14.19 0.24"/><polygon class="20c4989c-04f6-4a47-9846-06b38f8e9ddf" points="11.32 4.87 7.66 4.87 5.83 8.04 7.66 11.21 11.32 11.21 13.15 8.04 11.32 4.87"/><polyline class="e135d244-769b-4db8-b5a2-24087bb60e34" points="5.69 8.26 9.67 8.27 11.56 4.9"/><line class="e135d244-769b-4db8-b5a2-24087bb60e34" x1="9.75" y1="8.32" x2="11.59" y2="11.37"/><path class="171d6551-7838-400f-a2d0-50e2b5903fa7" d="M1575.32,672.72" transform="translate(-1566.17 -664.46)"/><circle class="a556ac13-848c-45e4-9d61-1b966995a15b" cx="59.71" cy="7.24" r="4.06"/><circle class="a556ac13-848c-45e4-9d61-1b966995a15b" cx="10.66" cy="54.44" r="4.06"/><circle class="a23be7e4-f3c8-462f-847e-7ef04c8711c7" cx="35.54" cy="31.58" r="14.11"/><path class="17230185-e4f2-4cce-936d-ab3660292723" d="M1612.36,671.7v1.39h2.78V671.7" transform="translate(-1566.17 -664.46)"/><rect class="17230185-e4f2-4cce-936d-ab3660292723" x="60.26" y="33.94" width="1.39" height="2.78"/><rect class="17230185-e4f2-4cce-936d-ab3660292723" x="9.39" y="41.52" width="1.39" height="2.31"/></svg>