<svg id="87dd89b6-4397-4713-9758-614f6a309dbf" data-name="Слой 1" xmlns="http://www.w3.org/2000/svg" viewBox="0 0 100 100"><defs><style>.\31 2c09b7d-a4d7-4e18-9746-dd0987633ac3{fill:#000d88;}.\32 8b6e4cb-502e-495d-864f-092ffbe1cb07{opacity:0.59;}.\34 cdc257c-72d7-4ffc-9f05-7cdb3c930eb3{fill:none;}.\30 08822a6-40f4-40db-ad93-098bcedda65c{fill:#1e0e00;}</style></defs><title>CICD Practices</title><path class="12c09b7d-a4d7-4e18-9746-dd0987633ac3" d="M35.94,61.09l-3.53,3.06c-4.63,4-10,5.39-15.95,3.62C5.92,64.66.51,52.75,4.79,42.15c3.39-8.39,12.34-12.93,20.68-10.53,5.89,1.7,9.45,6.26,13.27,10.74-1.89.29-3.71.19-5.52.32s-3.72-.58-5.63.66c2.65.83,12.46.72,14.52-.15,0-4.1,0-8.29,0-12.48,0-.34-.46-.67-.7-1l-.49.13V40.5l-.62.23a15.62,15.62,0,0,1-1.3-1c-1.93-1.87-3.72-3.91-5.79-5.61-5.07-4.17-10.75-6-17.33-4C4.19,33.47-2.44,47.53,4.21,59.68c5.77,10.54,20,14,29.58,5,.92-.86,1.89-1.66,2.85-2.48Z"/><path class="12c09b7d-a4d7-4e18-9746-dd0987633ac3" d="M98.07,45C94.28,29.83,77.24,24.83,66.49,34.56c-.71.64-1.44,1.26-2.17,1.89l.79,1,2.38-2.06a17,17,0,0,1,15.22-4.12c7.74,1.6,13.76,9.13,14.12,17.28.38,8.69-5,16.62-12.82,19C75.93,70,65.51,65.21,61.26,56.82c1.95,0,3.78.08,5.6,0s3.76.47,5.69-.49c-1.61-1-11.81-1.16-14.51-.31,0,4.56-.3,9.19.68,13.81.84-3.65.41-7.4.77-11.61,2.44,2.39,4.39,4.45,6.5,6.34,5.78,5.2,12.44,6.89,19.82,4.2A20.06,20.06,0,0,0,98.07,45Z"/><g class="28b6e4cb-502e-495d-864f-092ffbe1cb07"><line class="12c09b7d-a4d7-4e18-9746-dd0987633ac3" x1="67.12" y1="34.87" x2="36.57" y2="61.71"/><rect class="4cdc257c-72d7-4ffc-9f05-7cdb3c930eb3" x="58.22" y="32.34" width="10.17" height="11.77" transform="translate(-9.48 51.28) rotate(-41.29)"/><rect class="008822a6-40f4-40db-ad93-098bcedda65c" x="59.7" y="39.74" width="1.89" height="1.18" transform="translate(-11.54 50.05) rotate(-41.29)"/><rect class="008822a6-40f4-40db-ad93-098bcedda65c" x="62.24" y="37.51" width="1.89" height="1.18" transform="translate(-9.43 51.17) rotate(-41.3)"/><rect class="008822a6-40f4-40db-ad93-098bcedda65c" x="64.77" y="35.28" width="1.89" height="1.18" transform="translate(-7.33 52.29) rotate(-41.29)"/><rect class="4cdc257c-72d7-4ffc-9f05-7cdb3c930eb3" x="50.58" y="39.05" width="10.17" height="11.77" transform="translate(-15.81 47.91) rotate(-41.29)"/><rect class="008822a6-40f4-40db-ad93-098bcedda65c" x="52.06" y="46.45" width="1.89" height="1.18" transform="translate(-17.86 46.68) rotate(-41.3)"/><rect class="008822a6-40f4-40db-ad93-098bcedda65c" x="54.6" y="44.22" width="1.89" height="1.18" transform="translate(-15.76 47.8) rotate(-41.29)"/><rect class="008822a6-40f4-40db-ad93-098bcedda65c" x="57.14" y="41.99" width="1.89" height="1.18" transform="translate(-13.66 48.92) rotate(-41.29)"/><rect class="4cdc257c-72d7-4ffc-9f05-7cdb3c930eb3" x="42.94" y="45.76" width="10.17" height="11.77" transform="translate(-22.14 44.54) rotate(-41.3)"/><rect class="008822a6-40f4-40db-ad93-098bcedda65c" x="44.42" y="53.16" width="1.89" height="1.18" transform="translate(-24.19 43.3) rotate(-41.29)"/><rect class="008822a6-40f4-40db-ad93-098bcedda65c" x="46.96" y="50.93" width="1.89" height="1.18" transform="translate(-22.08 44.42) rotate(-41.29)"/><rect class="008822a6-40f4-40db-ad93-098bcedda65c" x="49.5" y="48.7" width="1.89" height="1.18" transform="translate(-19.98 45.55) rotate(-41.3)"/><rect class="4cdc257c-72d7-4ffc-9f05-7cdb3c930eb3" x="35.3" y="52.46" width="10.17" height="11.77" transform="translate(-28.46 41.16) rotate(-41.29)"/><rect class="008822a6-40f4-40db-ad93-098bcedda65c" x="36.78" y="59.87" width="1.89" height="1.18" transform="translate(-30.52 39.93) rotate(-41.29)"/><rect class="008822a6-40f4-40db-ad93-098bcedda65c" x="39.33" y="57.64" width="1.89" height="1.18" transform="translate(-28.41 41.06) rotate(-41.3)"/><rect class="008822a6-40f4-40db-ad93-098bcedda65c" x="41.86" y="55.41" width="1.89" height="1.18" transform="translate(-26.31 42.17) rotate(-41.29)"/></g></svg>