<svg id="3ed23d89-b98a-4c5f-9afc-361b213acd32" data-name="Слой 1" xmlns="http://www.w3.org/2000/svg"
     viewBox="0 0 58.36 58.36">
    <defs>
        <style>.\39
            8be844d-5d89-42eb-aa68-f6cb1d4d7241{fill:#131877;}.bc43072f-f327-429c-8b0b-7c50c42a17ed{fill:#fff;}.f5720e7b-5905-428d-b8c8-4a70ffb5a4c0{stroke:#000;stroke-width:0.33px;}.\31
            22627cc-b1e9-41cc-9c4e-2bb7e79c92c5,.f5720e7b-5905-428d-b8c8-4a70ffb5a4c0{stroke-miterlimit:10;}.\31
            22627cc-b1e9-41cc-9c4e-2bb7e79c92c5{fill:none;stroke:#fff;stroke-width:0.28px;}
        </style>
    </defs>

    <path class="98be844d-5d89-42eb-aa68-f6cb1d4d7241"
          d="M290.61,693.37c0.72-.78,1.4-1.56,2.13-2.28a37,37,0,0,1,6.25-5.15,15.29,15.29,0,0,1,8.91-2.55,16.2,16.2,0,0,1,7.5,2.26,31.51,31.51,0,0,1,7.59,6.48c0.37,0.42.74,0.84,1.11,1.27-2.94,3-5.88,6.06-9.65,8a15.13,15.13,0,0,1-15.57-.6,32.93,32.93,0,0,1-6.33-5.41ZM314,693.3a6.72,6.72,0,1,0-6.69,7.07A6.9,6.9,0,0,0,314,693.3Z"
          transform="translate(-277.48 -664.58)"/>
    <path class="bc43072f-f327-429c-8b0b-7c50c42a17ed"
          d="M313,693.3a6.72,6.72,0,1,1-6.7-7.07A6.91,6.91,0,0,1,313,693.3Zm-6.2-4.07a3.82,3.82,0,0,0-4,2.23,4.28,4.28,0,0,0,.88,4.9,3.73,3.73,0,0,0,4.6.5,4.06,4.06,0,0,0,1.86-4c-1.32.67-2.37,0.57-3.18-.31S306.08,690.6,306.79,689.24Z"
          transform="translate(-277.48 -664.58)"/>
    <path class="98be844d-5d89-42eb-aa68-f6cb1d4d7241"
          d="M307.84,689.24c-0.71,1.37-.65,2.43.15,3.3s1.86,1,3.18.31a4.06,4.06,0,0,1-1.86,4,3.73,3.73,0,0,1-4.6-.5,4.28,4.28,0,0,1-.88-4.9A3.82,3.82,0,0,1,307.84,689.24Z"
          transform="translate(-277.48 -664.58)"/>
    <g id="ce9458c2-27b0-4886-8021-2144de8c3f68" data-name="rckXvb.tif">
        <path d="M320.7,719.18a1.1,1.1,0,1,1,1.1-1.1A1.13,1.13,0,0,1,320.7,719.18Z"
              transform="translate(-277.48 -664.58)"/>
        <path d="M312.84,720.88a1.09,1.09,0,1,1,1.09,1.11A1.09,1.09,0,0,1,312.84,720.88Z"
              transform="translate(-277.48 -664.58)"/>
        <path d="M331,708.9a1.1,1.1,0,1,1,1.11-1.08A1.13,1.13,0,0,1,331,708.9Z" transform="translate(-277.48 -664.58)"/>
        <path d="M292.6,719.18a1.1,1.1,0,1,1,1.12-1.08A1.14,1.14,0,0,1,292.6,719.18Z"
              transform="translate(-277.48 -664.58)"/>
        <path d="M312.84,666.64a1.09,1.09,0,1,1,1.07,1.11A1.09,1.09,0,0,1,312.84,666.64Z"
              transform="translate(-277.48 -664.58)"/>
        <path d="M283.44,707.81a1.1,1.1,0,1,1-1.11-1.11A1.14,1.14,0,0,1,283.44,707.81Z"
              transform="translate(-277.48 -664.58)"/>
        <path d="M279.53,699.95a1.09,1.09,0,1,1-1.09,1.08A1.1,1.1,0,0,1,279.53,699.95Z"
              transform="translate(-277.48 -664.58)"/>
        <path d="M305.55,721.84a1.1,1.1,0,1,1,1.11,1.11A1.14,1.14,0,0,1,305.55,721.84Z"
              transform="translate(-277.48 -664.58)"/>
        <path d="M333.63,693.75a1.1,1.1,0,1,1,1.11,1.11A1.14,1.14,0,0,1,333.63,693.75Z"
              transform="translate(-277.48 -664.58)"/>
        <path d="M277.48,693.77a1.1,1.1,0,1,1,1.1,1.1A1.14,1.14,0,0,1,277.48,693.77Z"
              transform="translate(-277.48 -664.58)"/>
        <path d="M329.87,679.72a1.1,1.1,0,1,1,1.08,1.11A1.13,1.13,0,0,1,329.87,679.72Z"
              transform="translate(-277.48 -664.58)"/>
        <path d="M292.62,670.55a1.1,1.1,0,1,1,1.1-1.09A1.13,1.13,0,0,1,292.62,670.55Z"
              transform="translate(-277.48 -664.58)"/>
        <path d="M305.55,665.66a1.1,1.1,0,1,1,1.09,1.13A1.14,1.14,0,0,1,305.55,665.66Z"
              transform="translate(-277.48 -664.58)"/>
        <path d="M333.77,687.58a1.09,1.09,0,1,1,1.11-1.06A1.09,1.09,0,0,1,333.77,687.58Z"
              transform="translate(-277.48 -664.58)"/>
        <path d="M279.55,687.58a1.08,1.08,0,1,1,1.09-1.09A1.09,1.09,0,0,1,279.55,687.58Z"
              transform="translate(-277.48 -664.58)"/>
        <path d="M283.44,679.72a1.1,1.1,0,1,1-1.12-1.1A1.13,1.13,0,0,1,283.44,679.72Z"
              transform="translate(-277.48 -664.58)"/>
        <path d="M333.78,699.95a1.08,1.08,0,1,1-1.11,1.1A1.09,1.09,0,0,1,333.78,699.95Z"
              transform="translate(-277.48 -664.58)"/>
        <path d="M320.68,670.55a1.1,1.1,0,1,1,1.11-1.1A1.14,1.14,0,0,1,320.68,670.55Z"
              transform="translate(-277.48 -664.58)"/>
        <path d="M300.47,720.88a1.08,1.08,0,1,1-1.08-1.1A1.09,1.09,0,0,1,300.47,720.88Z"
              transform="translate(-277.48 -664.58)"/>
        <path d="M300.47,666.66a1.09,1.09,0,1,1-1.09-1.12A1.09,1.09,0,0,1,300.47,666.66Z"
              transform="translate(-277.48 -664.58)"/>
        <path d="M285.72,673.91a1.08,1.08,0,0,1,2.17,0A1.08,1.08,0,1,1,285.72,673.91Z"
              transform="translate(-277.48 -664.58)"/>
        <path d="M327.59,713.61a1.08,1.08,0,0,1-2.17,0A1.08,1.08,0,1,1,327.59,713.61Z"
              transform="translate(-277.48 -664.58)"/>
        <path d="M286.8,714.7a1.08,1.08,0,1,1,0-2.17A1.08,1.08,0,0,1,286.8,714.7Z"
              transform="translate(-277.48 -664.58)"/>
        <path d="M327.59,673.9a1.08,1.08,0,1,1-1.08-1.07A1.06,1.06,0,0,1,327.59,673.9Z"
              transform="translate(-277.48 -664.58)"/>
    </g>
    <path class="f5720e7b-5905-428d-b8c8-4a70ffb5a4c0" d="M293.52,719.11" transform="translate(-277.48 -664.58)"/>
    <path class="f5720e7b-5905-428d-b8c8-4a70ffb5a4c0" d="M329.5,675.76" transform="translate(-277.48 -664.58)"/>
    <path class="122627cc-b1e9-41cc-9c4e-2bb7e79c92c5" d="M309.63,694.94" transform="translate(-277.48 -664.58)"/>
</svg>