<svg id="bf39309b-f682-4a67-b71a-d7d209df2d9d" data-name="Слой 1" xmlns="http://www.w3.org/2000/svg" viewBox="0 0 47.22 65.28"><defs><style>.\36 560ec67-cad4-410b-80a8-29e8a05aac9c{fill:#141460;}.\30 2a15186-4376-4bcc-adae-ef1dc5758732,.\36 0df8619-1a67-47b5-a738-69b1416b6e51,.bf79fa56-5c82-465c-bc3d-3361635ee14f,.c7ab4a1b-13a6-47ab-bd21-4014a838abc3{fill:none;}.\30 2a15186-4376-4bcc-adae-ef1dc5758732,.bf79fa56-5c82-465c-bc3d-3361635ee14f{stroke:#fff;}.\30 2a15186-4376-4bcc-adae-ef1dc5758732,.bf79fa56-5c82-465c-bc3d-3361635ee14f,.c7ab4a1b-13a6-47ab-bd21-4014a838abc3{stroke-miterlimit:10;}.bf79fa56-5c82-465c-bc3d-3361635ee14f{stroke-width:0.61px;}.\30 2a15186-4376-4bcc-adae-ef1dc5758732{stroke-width:0.15px;}.\34 5376827-f839-4272-a802-8b2ed1e68dfb{opacity:0.47;}.\30 924f014-fd0a-481d-9c9b-6a9dad301229,.b2e88a97-27c9-4909-87a9-53126916dc01{fill:#1e0e00;}.\30 924f014-fd0a-481d-9c9b-6a9dad301229{fill-rule:evenodd;}.c7ab4a1b-13a6-47ab-bd21-4014a838abc3{stroke:#000d8f;stroke-width:0.45px;}.cb4d5b99-dd9d-4e7d-95c1-4fca2150de62{fill:#000d8f;}</style></defs><polygon class="6560ec67-cad4-410b-80a8-29e8a05aac9c" points="28.36 12.76 28.36 17.27 32.29 19.53 36.22 17.27 36.22 12.76 32.29 10.5 28.36 12.76"/><polyline class="bf79fa56-5c82-465c-bc3d-3361635ee14f" points="32.56 19.71 32.57 14.8 28.4 12.46"/><line class="bf79fa56-5c82-465c-bc3d-3361635ee14f" x1="32.64" y1="14.71" x2="36.42" y2="12.43"/><path class="02a15186-4376-4bcc-adae-ef1dc5758732" d="M647.91,674.53" transform="translate(-615.35 -659.09)"/><path class="6560ec67-cad4-410b-80a8-29e8a05aac9c" d="M646.42,710.72l-2.86-.21,3.65-7.38,3.67,7.37-2.83.15c0,2.11.08,4.19,0,6.26a7.38,7.38,0,0,1-7,7.05,7.54,7.54,0,0,1-8.17-6.14,17.55,17.55,0,0,1-.26-3c0-7.08,0-14.16,0-21.23a5.59,5.59,0,0,0-4.75-5.48,5.82,5.82,0,0,0-6.42,4,6.09,6.09,0,0,0-.19,1.73c0,6.43,0,12.87,0,19.3a2.2,2.2,0,0,0,1.4,2.3,4.54,4.54,0,0,1,2.26,5.36,4.49,4.49,0,0,1-4.65,3.5,4.56,4.56,0,0,1-4.66-3.51,4.4,4.4,0,0,1,2.2-5.37,2.44,2.44,0,0,0,1.49-2.61c0-6.38-.07-12.75,0-19.13a7.69,7.69,0,0,1,6.88-7.62,7.57,7.57,0,0,1,8.34,5.94,11.47,11.47,0,0,1,.2,2.61c0,7,0,14,0,21.06,0,3.8,2.56,6.36,6.08,6.22a5.33,5.33,0,0,0,5.18-4.21A67.25,67.25,0,0,0,646.42,710.72Zm-23.27,9a2.87,2.87,0,0,0-2.92-3,3,3,0,0,0-.12,5.92A2.81,2.81,0,0,0,623.15,719.75Z" transform="translate(-615.35 -659.09)"/><g class="45376827-f839-4272-a802-8b2ed1e68dfb"><path class="60df8619-1a67-47b5-a738-69b1416b6e51" d="M651.91,691.53H643c0-1.64,0-3.24,0-4.84a1.92,1.92,0,0,0-1.16-2,11.71,11.71,0,0,1-6.07-12.56,11.83,11.83,0,0,1,10.79-9.55c5.06-.49,10.25,3,12,8.07a11.57,11.57,0,0,1-5.2,13.81,2.4,2.4,0,0,0-1.45,2.58C652,688.42,651.91,689.87,651.91,691.53Zm-9.36-7.6-5.93-10.52,6.78-9.12M657,669.52,650.92,687m0,3.52-7.05,0" transform="translate(-615.35 -659.09)"/><path class="60df8619-1a67-47b5-a738-69b1416b6e51" d="M646.41,688.21v-1.68a5.82,5.82,0,0,0-.3-1.9,5.08,5.08,0,0,0-1.3-2,6.51,6.51,0,0,0-1.35-1l-0.5-.3a8.77,8.77,0,0,1-.93-0.69l-4.37,5.24a15.59,15.59,0,0,0,1.63,1.2l0.87,0.52a0.24,0.24,0,1,0,0-.06,1.83,1.83,0,0,1-.44-0.7,1.12,1.12,0,0,1-.07-0.33V688Z" transform="translate(-615.35 -659.09)"/><path class="0924f014-fd0a-481d-9c9b-6a9dad301229" d="M641,684.44l0.36-.58c-0.33-.19-0.62-0.44-0.94-0.65l-0.42.54C640.39,684,640.7,684.24,641,684.44Z" transform="translate(-615.35 -659.09)"/><path class="0924f014-fd0a-481d-9c9b-6a9dad301229" d="M642.6,685.65l0.61-.3a2.5,2.5,0,0,0-1-1l-0.35.58A1.83,1.83,0,0,1,642.6,685.65Z" transform="translate(-615.35 -659.09)"/><polygon class="0924f014-fd0a-481d-9c9b-6a9dad301229" points="27.41 28.54 28.09 28.56 28.1 27.35 27.42 27.37 27.41 28.54"/><path class="60df8619-1a67-47b5-a738-69b1416b6e51" d="M642,680.65a8.51,8.51,0,0,1-2.6-3.68l-6.42,2.3a15.33,15.33,0,0,0,4.65,6.62Z" transform="translate(-615.35 -659.09)"/><path class="0924f014-fd0a-481d-9c9b-6a9dad301229" d="M636.67,679.74l0.6-.32a10.12,10.12,0,0,1-.48-1l-0.63.26A10.8,10.8,0,0,0,636.67,679.74Z" transform="translate(-615.35 -659.09)"/><path class="0924f014-fd0a-481d-9c9b-6a9dad301229" d="M637.85,681.56l0.54-.42a10.17,10.17,0,0,1-.65-0.93l-0.58.37A10.82,10.82,0,0,0,637.85,681.56Z" transform="translate(-615.35 -659.09)"/><path class="0924f014-fd0a-481d-9c9b-6a9dad301229" d="M639.31,683.14l0.46-.51c-0.27-.27-0.56-0.52-0.81-0.81l-0.5.46C638.72,682.58,639,682.85,639.31,683.14Z" transform="translate(-615.35 -659.09)"/><path class="60df8619-1a67-47b5-a738-69b1416b6e51" d="M639.43,677a7.63,7.63,0,0,1-.27-4.36l-6.65-1.52a14.48,14.48,0,0,0,.49,8.19Z" transform="translate(-615.35 -659.09)"/><path class="0924f014-fd0a-481d-9c9b-6a9dad301229" d="M635.35,673.45l0.68,0.05a9.05,9.05,0,0,1,.15-1.13l-0.67-.13A9.71,9.71,0,0,0,635.35,673.45Z" transform="translate(-615.35 -659.09)"/><path class="0924f014-fd0a-481d-9c9b-6a9dad301229" d="M635.38,675.62l0.68-.08a9.9,9.9,0,0,1-.07-1.13h-0.68A10.59,10.59,0,0,0,635.38,675.62Z" transform="translate(-615.35 -659.09)"/><path class="0924f014-fd0a-481d-9c9b-6a9dad301229" d="M635.83,677.73l0.65-.2c-0.11-.36-0.2-0.73-0.28-1.1l-0.67.13C635.61,677,635.71,677.35,635.83,677.73Z" transform="translate(-615.35 -659.09)"/><path class="60df8619-1a67-47b5-a738-69b1416b6e51" d="M639.16,672.6a8.66,8.66,0,0,1,2.08-4l-5-4.66a15.5,15.5,0,0,0-3.75,7.15Z" transform="translate(-615.35 -659.09)"/><path class="0924f014-fd0a-481d-9c9b-6a9dad301229" d="M637.52,667.4l0.56,0.39c0.23-.3.44-0.62,0.7-0.9l-0.52-.45C638,666.74,637.76,667.08,637.52,667.4Z" transform="translate(-615.35 -659.09)"/><path class="0924f014-fd0a-481d-9c9b-6a9dad301229" d="M636.44,669.28l0.62,0.28c0.16-.34.34-0.68,0.52-1l-0.59-.34C636.8,668.56,636.61,668.92,636.44,669.28Z" transform="translate(-615.35 -659.09)"/><path class="0924f014-fd0a-481d-9c9b-6a9dad301229" d="M635.72,671.31l0.66,0.18c0.08-.37.23-0.73,0.34-1.09l-0.64-.24C636,670.54,635.81,670.92,635.72,671.31Z" transform="translate(-615.35 -659.09)"/><path class="60df8619-1a67-47b5-a738-69b1416b6e51" d="M641.24,668.59a8.36,8.36,0,0,1,3.85-2.31l-1.89-6.55a15.2,15.2,0,0,0-6.94,4.2Z" transform="translate(-615.35 -659.09)"/><path class="0924f014-fd0a-481d-9c9b-6a9dad301229" d="M642.49,663.34l0.27,0.62c0.35-.15.71-0.28,1.07-0.41l-0.21-.65C643.24,663,642.86,663.18,642.49,663.34Z" transform="translate(-615.35 -659.09)"/><path class="0924f014-fd0a-481d-9c9b-6a9dad301229" d="M640.6,664.38l0.38,0.57a11.23,11.23,0,0,1,1-.59l-0.32-.6A11.91,11.91,0,0,0,640.6,664.38Z" transform="translate(-615.35 -659.09)"/><path class="0924f014-fd0a-481d-9c9b-6a9dad301229" d="M638.93,665.74l0.48,0.49a8.26,8.26,0,0,1,.85-0.75l-0.42-.53A8.92,8.92,0,0,0,638.93,665.74Z" transform="translate(-615.35 -659.09)"/><path class="60df8619-1a67-47b5-a738-69b1416b6e51" d="M645.09,666.28a9.24,9.24,0,0,1,1.15-.26l0.6-.08,0.53,0a7.52,7.52,0,0,1,2.13.28l1.88-6.56a14.32,14.32,0,0,0-4.17-.54c-0.35,0-.72,0-1.06.06l-1,.13a16,16,0,0,0-2,.44Z" transform="translate(-615.35 -659.09)"/><path class="0924f014-fd0a-481d-9c9b-6a9dad301229" d="M648.84,662.34l-0.09.68a7.62,7.62,0,0,1,1.12.21l0.16-.66A8.26,8.26,0,0,0,648.84,662.34Z" transform="translate(-615.35 -659.09)"/><path class="0924f014-fd0a-481d-9c9b-6a9dad301229" d="M646.68,662.29l0.06,0.68a9.28,9.28,0,0,1,1.13,0l0-.68A10,10,0,0,0,646.68,662.29Z" transform="translate(-615.35 -659.09)"/><path class="0924f014-fd0a-481d-9c9b-6a9dad301229" d="M644.55,662.64l0.16,0.66c0.37-.07.74-0.17,1.12-0.22l-0.1-.67C645.34,662.45,644.95,662.56,644.55,662.64Z" transform="translate(-615.35 -659.09)"/><path class="60df8619-1a67-47b5-a738-69b1416b6e51" d="M649.49,666.19a8.86,8.86,0,0,1,3.87,2.37l4.91-4.73a15.65,15.65,0,0,0-6.9-4.19Z" transform="translate(-615.35 -659.09)"/><path class="0924f014-fd0a-481d-9c9b-6a9dad301229" d="M654.75,664.89l-0.42.53c0.28,0.25.59,0.48,0.85,0.76l0.47-.49C655.37,665.4,655,665.15,654.75,664.89Z" transform="translate(-615.35 -659.09)"/><path class="0924f014-fd0a-481d-9c9b-6a9dad301229" d="M652.95,663.69l-0.33.6c0.34,0.18.65,0.39,1,.59l0.38-.56C653.64,664.11,653.3,663.88,652.95,663.69Z" transform="translate(-615.35 -659.09)"/><path class="0924f014-fd0a-481d-9c9b-6a9dad301229" d="M651,662.83l-0.22.65a10.79,10.79,0,0,1,1.06.41l0.28-.62A11.48,11.48,0,0,0,651,662.83Z" transform="translate(-615.35 -659.09)"/><path class="60df8619-1a67-47b5-a738-69b1416b6e51" d="M653.36,668.56a9.21,9.21,0,0,1,1.36,1.83,9,9,0,0,1,.8,2.1l6.64-1.56a15.84,15.84,0,0,0-1.47-3.84,16,16,0,0,0-2.42-3.27Z" transform="translate(-615.35 -659.09)"/><path class="0924f014-fd0a-481d-9c9b-6a9dad301229" d="M658.58,670l-0.64.25a8.62,8.62,0,0,1,.36,1.08l0.66-.18A9.24,9.24,0,0,0,658.58,670Z" transform="translate(-615.35 -659.09)"/><path class="0924f014-fd0a-481d-9c9b-6a9dad301229" d="M657.61,668.11l-0.58.36a8.37,8.37,0,0,1,.55,1l0.61-.3A9,9,0,0,0,657.61,668.11Z" transform="translate(-615.35 -659.09)"/><path class="0924f014-fd0a-481d-9c9b-6a9dad301229" d="M656.33,666.38l-0.51.45a10.5,10.5,0,0,1,.71.89l0.55-.4A11.16,11.16,0,0,0,656.33,666.38Z" transform="translate(-615.35 -659.09)"/><path class="60df8619-1a67-47b5-a738-69b1416b6e51" d="M655.53,672.49a8.13,8.13,0,0,1-.2,4.43l6.47,2.15a15,15,0,0,0,.37-8.14Z" transform="translate(-615.35 -659.09)"/><path class="0924f014-fd0a-481d-9c9b-6a9dad301229" d="M659.21,676.44l-0.67-.12c-0.07.37-.16,0.74-0.26,1.11l0.66,0.19C659,677.23,659.14,676.84,659.21,676.44Z" transform="translate(-615.35 -659.09)"/><path class="0924f014-fd0a-481d-9c9b-6a9dad301229" d="M659.39,674.29h-0.68c0,0.38,0,.76,0,1.14l0.68,0.06C659.36,675.09,659.42,674.69,659.39,674.29Z" transform="translate(-615.35 -659.09)"/><path class="0924f014-fd0a-481d-9c9b-6a9dad301229" d="M659.18,672.14l-0.67.13a9.8,9.8,0,0,1,.16,1.13l0.68-.06A10.46,10.46,0,0,0,659.18,672.14Z" transform="translate(-615.35 -659.09)"/><path class="60df8619-1a67-47b5-a738-69b1416b6e51" d="M655.33,676.93a8.23,8.23,0,0,1-2.49,3.68l4.39,5.22a15.06,15.06,0,0,0,4.57-6.74Z" transform="translate(-615.35 -659.09)"/><path class="0924f014-fd0a-481d-9c9b-6a9dad301229" d="M656.39,682.21l-0.51-.46a8.17,8.17,0,0,1-.8.81l0.46,0.5A8.81,8.81,0,0,0,656.39,682.21Z" transform="translate(-615.35 -659.09)"/><path class="0924f014-fd0a-481d-9c9b-6a9dad301229" d="M657.68,680.48l-0.58-.35a9.52,9.52,0,0,1-.64.94l0.54,0.41A10.2,10.2,0,0,0,657.68,680.48Z" transform="translate(-615.35 -659.09)"/><path class="0924f014-fd0a-481d-9c9b-6a9dad301229" d="M658.64,678.54L658,678.3c-0.16.34-.27,0.71-0.46,1l0.61,0.31C658.34,679.3,658.47,678.91,658.64,678.54Z" transform="translate(-615.35 -659.09)"/><path class="60df8619-1a67-47b5-a738-69b1416b6e51" d="M652.83,680.6a10.29,10.29,0,0,1-1.07.76l-0.34.22-0.26.17-0.32.23a6.25,6.25,0,0,0-1.13,1.07,5.47,5.47,0,0,0-1.18,2.83,8.24,8.24,0,0,0,0,1.53l0,0.43v0.34l6.82-.13,0-.87,0.4-.26a15.94,15.94,0,0,0,1.51-1.11Z" transform="translate(-615.35 -659.09)"/><path class="0924f014-fd0a-481d-9c9b-6a9dad301229" d="M652.13,686.51l-0.68-.14a12.34,12.34,0,0,0,0,1.29l0.68,0C652.16,687.23,652.1,686.88,652.13,686.51Z" transform="translate(-615.35 -659.09)"/><path class="0924f014-fd0a-481d-9c9b-6a9dad301229" d="M653.07,684.87l-0.48-.49a2.86,2.86,0,0,0-.87,1l0.62,0.31A2.29,2.29,0,0,1,653.07,684.87Z" transform="translate(-615.35 -659.09)"/><path class="0924f014-fd0a-481d-9c9b-6a9dad301229" d="M654.8,683.7l-0.42-.54a8.47,8.47,0,0,1-1,.67l0.4,0.56A8.81,8.81,0,0,0,654.8,683.7Z" transform="translate(-615.35 -659.09)"/><rect class="60df8619-1a67-47b5-a738-69b1416b6e51" x="31.05" y="29.03" width="2.11" height="6.82"/><rect class="b2e88a97-27c9-4909-87a9-53126916dc01" x="31.21" y="32" width="0.39" height="0.68"/><rect class="b2e88a97-27c9-4909-87a9-53126916dc01" x="31.91" y="32" width="0.39" height="0.68"/><rect class="b2e88a97-27c9-4909-87a9-53126916dc01" x="32.61" y="32" width="0.39" height="0.68"/><polygon class="0924f014-fd0a-481d-9c9b-6a9dad301229" points="36.89 29.5 36.2 29.5 36.19 30.63 36.88 30.64 36.89 29.5"/><polygon class="0924f014-fd0a-481d-9c9b-6a9dad301229" points="36.86 32.68 36.86 31.55 36.18 31.54 36.17 32 35.72 32 35.72 32.68 36.86 32.68"/><rect class="b2e88a97-27c9-4909-87a9-53126916dc01" x="33.67" y="32" width="1.14" height="0.68"/><rect class="b2e88a97-27c9-4909-87a9-53126916dc01" x="29.44" y="32.04" width="1.14" height="0.68"/><polygon class="0924f014-fd0a-481d-9c9b-6a9dad301229" points="27.4 32.73 28.54 32.73 28.54 32.04 28.08 32.04 28.08 31.59 27.4 31.59 27.4 32.73"/><polygon class="0924f014-fd0a-481d-9c9b-6a9dad301229" points="27.4 30.68 28.09 30.69 28.09 29.55 27.41 29.54 27.4 30.68"/><path class="c7ab4a1b-13a6-47ab-bd21-4014a838abc3" d="M642.55,683.92" transform="translate(-615.35 -659.09)"/><path class="c7ab4a1b-13a6-47ab-bd21-4014a838abc3" d="M636.62,673.4" transform="translate(-615.35 -659.09)"/><path class="c7ab4a1b-13a6-47ab-bd21-4014a838abc3" d="M643.4,664.28" transform="translate(-615.35 -659.09)"/><path class="c7ab4a1b-13a6-47ab-bd21-4014a838abc3" d="M657,669.52" transform="translate(-615.35 -659.09)"/><path class="c7ab4a1b-13a6-47ab-bd21-4014a838abc3" d="M650.92,687" transform="translate(-615.35 -659.09)"/><path class="c7ab4a1b-13a6-47ab-bd21-4014a838abc3" d="M651,690.55" transform="translate(-615.35 -659.09)"/><path class="c7ab4a1b-13a6-47ab-bd21-4014a838abc3" d="M643.9,690.55" transform="translate(-615.35 -659.09)"/></g><g class="45376827-f839-4272-a802-8b2ed1e68dfb"><rect class="60df8619-1a67-47b5-a738-69b1416b6e51" x="27.78" y="33.19" width="4.23" height="6.09"/><rect class="b2e88a97-27c9-4909-87a9-53126916dc01" x="30.91" y="36.02" width="0.78" height="0.61"/><rect class="b2e88a97-27c9-4909-87a9-53126916dc01" x="29.5" y="36.02" width="0.78" height="0.61"/><rect class="b2e88a97-27c9-4909-87a9-53126916dc01" x="28.1" y="36.02" width="0.78" height="0.61"/><rect class="60df8619-1a67-47b5-a738-69b1416b6e51" x="32.01" y="33.19" width="4.23" height="6.09"/><rect class="b2e88a97-27c9-4909-87a9-53126916dc01" x="35.14" y="36.02" width="0.78" height="0.61"/><rect class="b2e88a97-27c9-4909-87a9-53126916dc01" x="33.73" y="36.02" width="0.78" height="0.61"/><rect class="b2e88a97-27c9-4909-87a9-53126916dc01" x="32.33" y="36.02" width="0.78" height="0.61"/></g><g class="45376827-f839-4272-a802-8b2ed1e68dfb"><line class="cb4d5b99-dd9d-4e7d-95c1-4fca2150de62" x1="28.84" y1="39.57" x2="35.53" y2="39.57"/><rect class="60df8619-1a67-47b5-a738-69b1416b6e51" x="28.84" y="36.52" width="6.69" height="6.09"/><rect class="b2e88a97-27c9-4909-87a9-53126916dc01" x="33.79" y="39.35" width="1.24" height="0.61"/><rect class="b2e88a97-27c9-4909-87a9-53126916dc01" x="31.57" y="39.35" width="1.24" height="0.61"/><rect class="b2e88a97-27c9-4909-87a9-53126916dc01" x="29.35" y="39.35" width="1.24" height="0.61"/></g></svg>