<svg id="d6e7d1e7-5cb9-444d-b5cb-ed58d7dc1888" data-name="Слой 1" xmlns="http://www.w3.org/2000/svg" viewBox="0 0 65.1 65.8"><defs><style>.\37 4ff2076-0bb6-45bb-9e2a-c3d8524b5457,.\38 c9739da-7d5e-460a-b3fd-f859356c2f4c{fill:none;}.\37 4ff2076-0bb6-45bb-9e2a-c3d8524b5457{stroke:#0d1c80;stroke-width:0.7px;}.\36 d50a1b2-8693-423a-bf31-6834497286cc,.\37 4ff2076-0bb6-45bb-9e2a-c3d8524b5457{stroke-miterlimit:10;}.\38 e2340be-569e-44e1-b05a-217d73673182{opacity:0.38;}.\34 07fe15e-e44a-4a20-b1cd-f9cd0ddc855f{fill:#000d89;}.\30 e307582-95b6-485d-a555-9c933a71d4fc{fill:#1e0e00;}.\36 d50a1b2-8693-423a-bf31-6834497286cc{fill:#fff;stroke:#142951;stroke-width:0.32px;}.e41b7191-b43c-43d6-af7d-96a0f7744e47{fill:#0d1c80;}</style></defs><title>support</title><path class="74ff2076-0bb6-45bb-9e2a-c3d8524b5457" d="M12.82,0.35H46.08a5.4,5.4,0,0,1,5.4,5.4V44.82a5.4,5.4,0,0,1-5.4,5.4H5.75a5.4,5.4,0,0,1-5.4-5.4v-32A12.47,12.47,0,0,1,12.82.35Z"/><g class="8e2340be-569e-44e1-b05a-217d73673182"><line class="407fe15e-e44a-4a20-b1cd-f9cd0ddc855f" x1="14.24" y1="14.87" x2="59.68" y2="14.87"/><rect class="8c9739da-7d5e-460a-b3fd-f859356c2f4c" x="14.24" y="7.77" width="11.36" height="14.2"/><rect class="0e307582-95b6-485d-a555-9c933a71d4fc" x="22.65" y="14.36" width="2.11" height="1.42"/><rect class="0e307582-95b6-485d-a555-9c933a71d4fc" x="18.87" y="14.36" width="2.11" height="1.42"/><rect class="0e307582-95b6-485d-a555-9c933a71d4fc" x="15.1" y="14.36" width="2.11" height="1.42"/><rect class="8c9739da-7d5e-460a-b3fd-f859356c2f4c" x="25.6" y="7.77" width="11.36" height="14.2"/><rect class="0e307582-95b6-485d-a555-9c933a71d4fc" x="34.01" y="14.36" width="2.11" height="1.42"/><rect class="0e307582-95b6-485d-a555-9c933a71d4fc" x="30.23" y="14.36" width="2.11" height="1.42"/><rect class="0e307582-95b6-485d-a555-9c933a71d4fc" x="26.46" y="14.36" width="2.11" height="1.42"/><rect class="8c9739da-7d5e-460a-b3fd-f859356c2f4c" x="36.96" y="7.77" width="11.36" height="14.2"/><rect class="0e307582-95b6-485d-a555-9c933a71d4fc" x="45.37" y="14.36" width="2.11" height="1.42"/><rect class="0e307582-95b6-485d-a555-9c933a71d4fc" x="41.59" y="14.36" width="2.11" height="1.42"/><rect class="0e307582-95b6-485d-a555-9c933a71d4fc" x="37.82" y="14.36" width="2.11" height="1.42"/><rect class="8c9739da-7d5e-460a-b3fd-f859356c2f4c" x="48.32" y="7.77" width="11.36" height="14.2"/><rect class="0e307582-95b6-485d-a555-9c933a71d4fc" x="56.73" y="14.36" width="2.11" height="1.42"/><rect class="0e307582-95b6-485d-a555-9c933a71d4fc" x="52.95" y="14.36" width="2.11" height="1.42"/><rect class="0e307582-95b6-485d-a555-9c933a71d4fc" x="49.18" y="14.36" width="2.11" height="1.42"/></g><g class="8e2340be-569e-44e1-b05a-217d73673182"><line class="407fe15e-e44a-4a20-b1cd-f9cd0ddc855f" x1="58" y1="9.97" x2="58" y2="55.42"/><rect class="8c9739da-7d5e-460a-b3fd-f859356c2f4c" x="50.9" y="9.97" width="14.2" height="11.36"/><rect class="0e307582-95b6-485d-a555-9c933a71d4fc" x="57.08" y="18.38" width="1.42" height="2.11"/><rect class="0e307582-95b6-485d-a555-9c933a71d4fc" x="57.08" y="14.6" width="1.42" height="2.11"/><rect class="0e307582-95b6-485d-a555-9c933a71d4fc" x="57.08" y="10.83" width="1.42" height="2.11"/><rect class="8c9739da-7d5e-460a-b3fd-f859356c2f4c" x="50.9" y="21.33" width="14.2" height="11.36"/><rect class="0e307582-95b6-485d-a555-9c933a71d4fc" x="57.08" y="29.75" width="1.42" height="2.11"/><rect class="0e307582-95b6-485d-a555-9c933a71d4fc" x="57.08" y="25.96" width="1.42" height="2.11"/><rect class="0e307582-95b6-485d-a555-9c933a71d4fc" x="57.08" y="22.19" width="1.42" height="2.11"/><rect class="8c9739da-7d5e-460a-b3fd-f859356c2f4c" x="50.9" y="32.69" width="14.2" height="11.36"/><rect class="0e307582-95b6-485d-a555-9c933a71d4fc" x="57.08" y="41.11" width="1.42" height="2.11"/><rect class="0e307582-95b6-485d-a555-9c933a71d4fc" x="57.08" y="37.33" width="1.42" height="2.11"/><rect class="0e307582-95b6-485d-a555-9c933a71d4fc" x="57.08" y="33.56" width="1.42" height="2.11"/><rect class="8c9739da-7d5e-460a-b3fd-f859356c2f4c" x="50.9" y="44.06" width="14.2" height="11.36"/><rect class="0e307582-95b6-485d-a555-9c933a71d4fc" x="57.08" y="52.47" width="1.42" height="2.11"/><rect class="0e307582-95b6-485d-a555-9c933a71d4fc" x="57.08" y="48.69" width="1.42" height="2.11"/><rect class="0e307582-95b6-485d-a555-9c933a71d4fc" x="57.08" y="44.92" width="1.42" height="2.11"/></g><g class="8e2340be-569e-44e1-b05a-217d73673182"><line class="407fe15e-e44a-4a20-b1cd-f9cd0ddc855f" x1="56.73" y1="58.7" x2="11.29" y2="58.7"/><rect class="8c9739da-7d5e-460a-b3fd-f859356c2f4c" x="45.37" y="51.6" width="11.36" height="14.2"/><rect class="0e307582-95b6-485d-a555-9c933a71d4fc" x="46.21" y="57.78" width="2.11" height="1.42"/><rect class="0e307582-95b6-485d-a555-9c933a71d4fc" x="49.99" y="57.78" width="2.11" height="1.42"/><rect class="0e307582-95b6-485d-a555-9c933a71d4fc" x="53.76" y="57.78" width="2.11" height="1.42"/><rect class="8c9739da-7d5e-460a-b3fd-f859356c2f4c" x="34.01" y="51.6" width="11.36" height="14.2"/><rect class="0e307582-95b6-485d-a555-9c933a71d4fc" x="34.85" y="57.78" width="2.11" height="1.42"/><rect class="0e307582-95b6-485d-a555-9c933a71d4fc" x="38.63" y="57.78" width="2.11" height="1.42"/><rect class="0e307582-95b6-485d-a555-9c933a71d4fc" x="42.4" y="57.78" width="2.11" height="1.42"/><rect class="8c9739da-7d5e-460a-b3fd-f859356c2f4c" x="22.65" y="51.6" width="11.36" height="14.2"/><rect class="0e307582-95b6-485d-a555-9c933a71d4fc" x="23.49" y="57.78" width="2.11" height="1.42"/><rect class="0e307582-95b6-485d-a555-9c933a71d4fc" x="27.27" y="57.78" width="2.11" height="1.42"/><rect class="0e307582-95b6-485d-a555-9c933a71d4fc" x="31.04" y="57.78" width="2.11" height="1.42"/><rect class="8c9739da-7d5e-460a-b3fd-f859356c2f4c" x="11.29" y="51.6" width="11.36" height="14.2"/><rect class="0e307582-95b6-485d-a555-9c933a71d4fc" x="12.13" y="57.78" width="2.11" height="1.42"/><rect class="0e307582-95b6-485d-a555-9c933a71d4fc" x="15.91" y="57.78" width="2.11" height="1.42"/><rect class="0e307582-95b6-485d-a555-9c933a71d4fc" x="19.68" y="57.78" width="2.11" height="1.42"/></g><g class="8e2340be-569e-44e1-b05a-217d73673182"><line class="407fe15e-e44a-4a20-b1cd-f9cd0ddc855f" x1="12.97" y1="59.68" x2="12.97" y2="14.24"/><rect class="8c9739da-7d5e-460a-b3fd-f859356c2f4c" x="5.87" y="48.32" width="14.2" height="11.36"/><rect class="0e307582-95b6-485d-a555-9c933a71d4fc" x="12.47" y="49.16" width="1.42" height="2.11"/><rect class="0e307582-95b6-485d-a555-9c933a71d4fc" x="12.47" y="52.94" width="1.42" height="2.11"/><rect class="0e307582-95b6-485d-a555-9c933a71d4fc" x="12.47" y="56.71" width="1.42" height="2.11"/><rect class="8c9739da-7d5e-460a-b3fd-f859356c2f4c" x="5.87" y="36.96" width="14.2" height="11.36"/><rect class="0e307582-95b6-485d-a555-9c933a71d4fc" x="12.47" y="37.8" width="1.42" height="2.11"/><rect class="0e307582-95b6-485d-a555-9c933a71d4fc" x="12.47" y="41.58" width="1.42" height="2.11"/><rect class="0e307582-95b6-485d-a555-9c933a71d4fc" x="12.47" y="45.35" width="1.42" height="2.11"/><rect class="8c9739da-7d5e-460a-b3fd-f859356c2f4c" x="5.87" y="25.6" width="14.2" height="11.36"/><rect class="0e307582-95b6-485d-a555-9c933a71d4fc" x="12.47" y="26.44" width="1.42" height="2.11"/><rect class="0e307582-95b6-485d-a555-9c933a71d4fc" x="12.47" y="30.22" width="1.42" height="2.11"/><rect class="0e307582-95b6-485d-a555-9c933a71d4fc" x="12.47" y="33.99" width="1.42" height="2.11"/><rect class="8c9739da-7d5e-460a-b3fd-f859356c2f4c" x="5.87" y="14.24" width="14.2" height="11.36"/><rect class="0e307582-95b6-485d-a555-9c933a71d4fc" x="12.47" y="15.07" width="1.42" height="2.11"/><rect class="0e307582-95b6-485d-a555-9c933a71d4fc" x="12.47" y="18.86" width="1.42" height="2.11"/><rect class="0e307582-95b6-485d-a555-9c933a71d4fc" x="12.47" y="22.63" width="1.42" height="2.11"/></g><circle class="6d50a1b2-8693-423a-bf31-6834497286cc" cx="1540.47" cy="2149.19" r="2.82" transform="translate(-1722.36 -1979.47) rotate(-5.39)"/><circle class="6d50a1b2-8693-423a-bf31-6834497286cc" cx="1587.18" cy="2147.79" r="2.82" transform="translate(-1722.02 -1975.09) rotate(-5.39)"/><circle class="6d50a1b2-8693-423a-bf31-6834497286cc" cx="1585.18" cy="2192.67" r="2.82" transform="translate(-1726.25 -1975.07) rotate(-5.39)"/><circle class="6d50a1b2-8693-423a-bf31-6834497286cc" cx="1538.47" cy="2193.38" r="2.82" transform="translate(-1726.52 -1979.46) rotate(-5.39)"/><path class="e41b7191-b43c-43d6-af7d-96a0f7744e47" d="M1554.39,2174.29v-1.74a14.75,14.75,0,0,0,5,.82q3.78,0,3.78-2.76,0-2.36-2.79-2.36h-1.88q-4.6,0-4.6-4,0-4.2,5.89-4.2a17.66,17.66,0,0,1,4.76.61v1.74a13.55,13.55,0,0,0-4.76-.82q-4,0-4,2.66,0,2.36,2.7,2.36h1.88q4.68,0,4.68,4,0,4.3-5.67,4.3A19.26,19.26,0,0,1,1554.39,2174.29Z" transform="translate(-1527.17 -2133.78)"/></svg>