<svg id="ad2374ae-99fc-4fd7-ad3b-f885066d7497" data-name="Слой 1" xmlns="http://www.w3.org/2000/svg" viewBox="0 0 88.08 75.08"> <defs> <style>.\30 a9dbf37-5b6e-4802-836e-acd7df522fc4,.d08651ec-4535-46b4-9abc-4f6f63f38c00{fill:#000d88;}.\39 1d10f7e-730c-404f-920a-11079ed579d4{opacity:0.57;}.ab259eaf-c92b-44fe-9dfe-1747673f0af2{opacity:0.53;}.\36 6675395-76a2-40bf-9d1e-b3e8070f693a{fill:none;}.\32 ecdf2e1-8309-4137-b018-8555315d79a3,.adb8cdcf-6bc7-4853-ae09-63ce441c70f0{fill:#1e0e00;}.adb8cdcf-6bc7-4853-ae09-63ce441c70f0{fill-rule:evenodd;}.\30 a9dbf37-5b6e-4802-836e-acd7df522fc4{opacity:0.37;} </style> </defs> <path class="d08651ec-4535-46b4-9abc-4f6f63f38c00" d="M923.43,2150.39v-7.63h3.25q2.18,0,2.18,1.83,0,1.49-2.13,2.2l2.62,3.6h-1.3l-2.43-3.43v-0.65q2.19-.35,2.19-1.68a1,1,0,0,0-1.22-1.06h-2.18v6.81h-1Z" transform="translate(-903.38 -2122.71)"/> <path class="d08651ec-4535-46b4-9abc-4f6f63f38c00" d="M939.38,2150.39v-7.63h3.25q2.18,0,2.18,1.83,0,1.49-2.13,2.2l2.62,3.6H944l-2.43-3.43v-0.65q2.19-.35,2.19-1.68a1,1,0,0,0-1.22-1.06h-2.18v6.81h-1Z" transform="translate(-903.38 -2122.71)"/> <g class="91d10f7e-730c-404f-920a-11079ed579d4"> <g class="ab259eaf-c92b-44fe-9dfe-1747673f0af2"> <path class="66675395-76a2-40bf-9d1e-b3e8070f693a" d="M973.43,2186.52h7.76c0.82,0,1.66,0,2.46,0a8.94,8.94,0,0,0,2.23-.53l-5.35-10.36h-7.1v10.93Z" transform="translate(-903.38 -2122.71)"/> <path class="adb8cdcf-6bc7-4853-ae09-63ce441c70f0" d="M980.75,2180.67l0,1.09c0.69,0,1.39,0,2.07,0l-0.4-1.07h-1.71Z" transform="translate(-903.38 -2122.71)"/> <rect class="2ecdf2e1-8309-4137-b018-8555315d79a3" x="74.08" y="57.96" width="1.84" height="1.09"/> <rect class="2ecdf2e1-8309-4137-b018-8555315d79a3" x="70.8" y="57.96" width="1.84" height="1.09"/> <path class="66675395-76a2-40bf-9d1e-b3e8070f693a" d="M985.89,2185.94a8.7,8.7,0,0,0,5.48-6.8,15.74,15.74,0,0,0,.1-2.44v-4.27H980.53v3.16Z" transform="translate(-903.38 -2122.71)"/> <rect class="2ecdf2e1-8309-4137-b018-8555315d79a3" x="82.23" y="50.45" width="1.09" height="1.84"/> <path class="adb8cdcf-6bc7-4853-ae09-63ce441c70f0" d="M985.58,2178.11l1,0.51a13.53,13.53,0,0,0,.1-2l-1.09-.17C985.6,2177,985.65,2177.54,985.58,2178.11Z" transform="translate(-903.38 -2122.71)"/> <path class="adb8cdcf-6bc7-4853-ae09-63ce441c70f0" d="M983.8,2180.43l0.65,1a3.9,3.9,0,0,0,1.55-1.3l-0.89-.74A3,3,0,0,1,983.8,2180.43Z" transform="translate(-903.38 -2122.71)"/> <rect class="66675395-76a2-40bf-9d1e-b3e8070f693a" x="77.15" y="39.82" width="10.93" height="9.91"/> <rect class="2ecdf2e1-8309-4137-b018-8555315d79a3" x="82.23" y="40.55" width="1.09" height="1.84"/> <rect class="2ecdf2e1-8309-4137-b018-8555315d79a3" x="82.23" y="43.85" width="1.09" height="1.84"/> <rect class="2ecdf2e1-8309-4137-b018-8555315d79a3" x="82.23" y="47.13" width="1.09" height="1.84"/> <rect class="66675395-76a2-40bf-9d1e-b3e8070f693a" x="77.15" y="29.91" width="10.93" height="9.91"/> <rect class="2ecdf2e1-8309-4137-b018-8555315d79a3" x="82.23" y="30.64" width="1.09" height="1.84"/> <rect class="2ecdf2e1-8309-4137-b018-8555315d79a3" x="82.23" y="33.94" width="1.09" height="1.84"/> <rect class="2ecdf2e1-8309-4137-b018-8555315d79a3" x="82.23" y="37.23" width="1.09" height="1.84"/> <path class="66675395-76a2-40bf-9d1e-b3e8070f693a" d="M991.47,2152.62V2148l0-.51a11.74,11.74,0,0,0-3.77-8.2l-7.42,8a0.78,0.78,0,0,1,.26.56v4.75h10.93Z" transform="translate(-903.38 -2122.71)"/> <path class="adb8cdcf-6bc7-4853-ae09-63ce441c70f0" d="M985.11,2145.52l1-.44a7.1,7.1,0,0,0-1.09-1.72l-0.83.71A6,6,0,0,1,985.11,2145.52Z" transform="translate(-903.38 -2122.71)"/> <path class="adb8cdcf-6bc7-4853-ae09-63ce441c70f0" d="M985.61,2148.58h1.09a10.13,10.13,0,0,0-.12-2l-1.08.2A9.08,9.08,0,0,1,985.61,2148.58Z" transform="translate(-903.38 -2122.71)"/> <rect class="2ecdf2e1-8309-4137-b018-8555315d79a3" x="82.23" y="27.32" width="1.09" height="1.84"/> <path class="66675395-76a2-40bf-9d1e-b3e8070f693a" d="M987.68,2139.27A11.75,11.75,0,0,0,971,2140l8.07,7.37a0.81,0.81,0,0,1,1.15-.05Z" transform="translate(-903.38 -2122.71)"/> <path class="adb8cdcf-6bc7-4853-ae09-63ce441c70f0" d="M977.3,2142.52l-0.45-1a6.91,6.91,0,0,0-1.72,1.1l0.72,0.83A5.81,5.81,0,0,1,977.3,2142.52Z" transform="translate(-903.38 -2122.71)"/> <path class="adb8cdcf-6bc7-4853-ae09-63ce441c70f0" d="M980.32,2142l0.11-1.09a7.59,7.59,0,0,0-2,.09l0.21,1.07A6.51,6.51,0,0,1,980.32,2142Z" transform="translate(-903.38 -2122.71)"/> <path class="adb8cdcf-6bc7-4853-ae09-63ce441c70f0" d="M983.17,2143.12l0.64-.89a6.75,6.75,0,0,0-1.81-.94l-0.36,1A5.66,5.66,0,0,1,983.17,2143.12Z" transform="translate(-903.38 -2122.71)"/> <path class="66675395-76a2-40bf-9d1e-b3e8070f693a" d="M971,2140a11.74,11.74,0,0,0-2.38,3.94,10.94,10.94,0,0,0-.56,2.25,8.73,8.73,0,0,0-.11,1.15l0,0.58v5.27H978.9v-5.26a0.15,0.15,0,0,0,0,0,0.15,0.15,0,0,1,0-.08,0.38,0.38,0,0,1,0-.15,0.81,0.81,0,0,1,.16-0.27Z" transform="translate(-903.38 -2122.71)"/> <rect class="2ecdf2e1-8309-4137-b018-8555315d79a3" x="69.34" y="27.88" width="1.09" height="1.84"/> <path class="adb8cdcf-6bc7-4853-ae09-63ce441c70f0" d="M973.85,2147.33l-1.09-.1c-0.05.71,0,1.29,0,1.91h1.09C973.82,2148.52,973.81,2147.88,973.85,2147.33Z" transform="translate(-903.38 -2122.71)"/> <path class="adb8cdcf-6bc7-4853-ae09-63ce441c70f0" d="M974.92,2144.47l-0.89-.64a6.83,6.83,0,0,0-.93,1.81l1,0.35A5.73,5.73,0,0,1,974.92,2144.47Z" transform="translate(-903.38 -2122.71)"/> <rect class="66675395-76a2-40bf-9d1e-b3e8070f693a" x="64.58" y="30.45" width="10.93" height="9.91"/> <rect class="2ecdf2e1-8309-4137-b018-8555315d79a3" x="69.34" y="37.78" width="1.09" height="1.84"/> <rect class="2ecdf2e1-8309-4137-b018-8555315d79a3" x="69.34" y="34.49" width="1.09" height="1.84"/> <rect class="2ecdf2e1-8309-4137-b018-8555315d79a3" x="69.34" y="31.2" width="1.09" height="1.84"/> <rect class="66675395-76a2-40bf-9d1e-b3e8070f693a" x="64.58" y="40.35" width="10.93" height="9.91"/> <rect class="2ecdf2e1-8309-4137-b018-8555315d79a3" x="69.34" y="47.69" width="1.09" height="1.84"/> <rect class="2ecdf2e1-8309-4137-b018-8555315d79a3" x="69.34" y="44.39" width="1.09" height="1.84"/> <rect class="2ecdf2e1-8309-4137-b018-8555315d79a3" x="69.34" y="41.1" width="1.09" height="1.84"/> <rect class="66675395-76a2-40bf-9d1e-b3e8070f693a" x="64.58" y="50.26" width="10.93" height="9.91"/> <rect class="2ecdf2e1-8309-4137-b018-8555315d79a3" x="69.34" y="57.6" width="1.09" height="1.84"/> <rect class="2ecdf2e1-8309-4137-b018-8555315d79a3" x="69.34" y="54.3" width="1.09" height="1.84"/> <rect class="2ecdf2e1-8309-4137-b018-8555315d79a3" x="69.34" y="51.01" width="1.09" height="1.84"/> <path class="66675395-76a2-40bf-9d1e-b3e8070f693a" d="M968,2182.87v3.1a0.82,0.82,0,0,0,0,.15,1.5,1.5,0,0,1,0,.15,0.84,0.84,0,0,1-.39.49l5.23,9.6a11.78,11.78,0,0,0,5.66-7,12.11,12.11,0,0,0,.43-2.28c0-.36,0-0.83,0-1.09v-3.1H968Z" transform="translate(-903.38 -2122.71)"/> <path class="adb8cdcf-6bc7-4853-ae09-63ce441c70f0" d="M972.4,2190.15l-0.86-.67a5.53,5.53,0,0,1-1.18,1.12l0.63,0.89A6.63,6.63,0,0,0,972.4,2190.15Z" transform="translate(-903.38 -2122.71)"/> <path class="adb8cdcf-6bc7-4853-ae09-63ce441c70f0" d="M973.75,2187l-1.08-.15a5.3,5.3,0,0,1-.46,1.56l1,0.46A6.39,6.39,0,0,0,973.75,2187Z" transform="translate(-903.38 -2122.71)"/> <rect class="2ecdf2e1-8309-4137-b018-8555315d79a3" x="69.34" y="60.92" width="1.09" height="1.84"/> <path class="66675395-76a2-40bf-9d1e-b3e8070f693a" d="M967.53,2186.76a0.77,0.77,0,0,1-.3.09h-0.55l-0.16,0a0.82,0.82,0,0,1-.51-0.37l-9.25,5.82a11.76,11.76,0,0,0,7.37,5.21,11.92,11.92,0,0,0,2.29.28h0.78c0.38,0,.77,0,1.15-0.06a11.71,11.71,0,0,0,4.41-1.37Z" transform="translate(-903.38 -2122.71)"/> <path class="adb8cdcf-6bc7-4853-ae09-63ce441c70f0" d="M962.94,2191.54l0.62-.9a6,6,0,0,1-1.19-1.11l-0.85.69A7.09,7.09,0,0,0,962.94,2191.54Z" transform="translate(-903.38 -2122.71)"/> <path class="adb8cdcf-6bc7-4853-ae09-63ce441c70f0" d="M966.21,2192.69l0.08-1.09a5.38,5.38,0,0,1-1.58-.36l-0.39,1A6.47,6.47,0,0,0,966.21,2192.69Z" transform="translate(-903.38 -2122.71)"/> <path class="adb8cdcf-6bc7-4853-ae09-63ce441c70f0" d="M969.61,2192.24l-0.4-1a5.6,5.6,0,0,1-1.58.37l0.09,1.09A6.68,6.68,0,0,0,969.61,2192.24Z" transform="translate(-903.38 -2122.71)"/> <path class="66675395-76a2-40bf-9d1e-b3e8070f693a" d="M966,2186.47a0.78,0.78,0,0,1-.11-0.29,0.21,0.21,0,0,1,0-.08,1.39,1.39,0,0,1,0-.25v-6.19H955v6.19c0,0.12,0,.64,0,1a9.68,9.68,0,0,0,.13,1.15,11.72,11.72,0,0,0,1.64,4.31Z" transform="translate(-903.38 -2122.71)"/> <rect class="2ecdf2e1-8309-4137-b018-8555315d79a3" x="56.66" y="57.68" width="1.09" height="1.84"/> <rect class="2ecdf2e1-8309-4137-b018-8555315d79a3" x="56.66" y="60.98" width="1.09" height="1.84"/> <path class="adb8cdcf-6bc7-4853-ae09-63ce441c70f0" d="M960.69,2188.89l1-.47a5.18,5.18,0,0,1-.47-1.55l-1.08.16A6.27,6.27,0,0,0,960.69,2188.89Z" transform="translate(-903.38 -2122.71)"/> <rect class="66675395-76a2-40bf-9d1e-b3e8070f693a" x="51.58" y="47.04" width="10.93" height="9.91"/> <rect class="2ecdf2e1-8309-4137-b018-8555315d79a3" x="56.66" y="47.78" width="1.09" height="1.84"/> <rect class="2ecdf2e1-8309-4137-b018-8555315d79a3" x="56.66" y="51.07" width="1.09" height="1.84"/> <rect class="2ecdf2e1-8309-4137-b018-8555315d79a3" x="56.66" y="54.36" width="1.09" height="1.84"/> <rect class="66675395-76a2-40bf-9d1e-b3e8070f693a" x="51.58" y="37.14" width="10.93" height="9.91"/> <rect class="2ecdf2e1-8309-4137-b018-8555315d79a3" x="56.66" y="37.87" width="1.09" height="1.84"/> <rect class="2ecdf2e1-8309-4137-b018-8555315d79a3" x="56.66" y="41.17" width="1.09" height="1.84"/> <rect class="2ecdf2e1-8309-4137-b018-8555315d79a3" x="56.66" y="44.45" width="1.09" height="1.84"/> <rect class="66675395-76a2-40bf-9d1e-b3e8070f693a" x="51.58" y="27.23" width="10.93" height="9.91"/> <rect class="2ecdf2e1-8309-4137-b018-8555315d79a3" x="56.66" y="27.96" width="1.09" height="1.84"/> <rect class="2ecdf2e1-8309-4137-b018-8555315d79a3" x="56.66" y="31.26" width="1.09" height="1.84"/> <rect class="2ecdf2e1-8309-4137-b018-8555315d79a3" x="56.66" y="34.55" width="1.09" height="1.84"/> <rect class="66675395-76a2-40bf-9d1e-b3e8070f693a" x="51.58" y="17.33" width="10.93" height="9.91"/> <rect class="2ecdf2e1-8309-4137-b018-8555315d79a3" x="56.66" y="18.06" width="1.09" height="1.84"/> <rect class="2ecdf2e1-8309-4137-b018-8555315d79a3" x="56.66" y="21.35" width="1.09" height="1.84"/> <rect class="2ecdf2e1-8309-4137-b018-8555315d79a3" x="56.66" y="24.64" width="1.09" height="1.84"/> <path class="66675395-76a2-40bf-9d1e-b3e8070f693a" d="M965.89,2140v-8.47a8.61,8.61,0,0,0-1.07-4.46l-9.86,6.54V2140h10.93Z" transform="translate(-903.38 -2122.71)"/> <path class="adb8cdcf-6bc7-4853-ae09-63ce441c70f0" d="M960,2132.77l1.09-.19a15.76,15.76,0,0,0-.09-2l-1,.53C960.07,2131.63,960,2132.2,960,2132.77Z" transform="translate(-903.38 -2122.71)"/> <rect class="2ecdf2e1-8309-4137-b018-8555315d79a3" x="56.66" y="11.45" width="1.09" height="1.84"/> <rect class="2ecdf2e1-8309-4137-b018-8555315d79a3" x="56.66" y="14.74" width="1.09" height="1.84"/> <path class="66675395-76a2-40bf-9d1e-b3e8070f693a" d="M964.82,2127.11a8.52,8.52,0,0,0-7.56-4.4h-6.1v10.93H955Z" transform="translate(-903.38 -2122.71)"/> <rect class="2ecdf2e1-8309-4137-b018-8555315d79a3" x="48.51" y="4.76" width="1.84" height="1.09"/> <path class="adb8cdcf-6bc7-4853-ae09-63ce441c70f0" d="M956.88,2128.56l0.4-1.07c-0.68,0-1.38,0-2.07,0l0,1.09h1.71Z" transform="translate(-903.38 -2122.71)"/> <path class="adb8cdcf-6bc7-4853-ae09-63ce441c70f0" d="M959.53,2129.78l0.89-.75a3.66,3.66,0,0,0-1.58-1.25l-0.64,1A2.85,2.85,0,0,1,959.53,2129.78Z" transform="translate(-903.38 -2122.71)"/> <rect class="66675395-76a2-40bf-9d1e-b3e8070f693a" x="37.87" width="9.91" height="10.93"/> <rect class="2ecdf2e1-8309-4137-b018-8555315d79a3" x="38.6" y="4.76" width="1.84" height="1.09"/> <rect class="2ecdf2e1-8309-4137-b018-8555315d79a3" x="41.9" y="4.76" width="1.84" height="1.09"/> <rect class="2ecdf2e1-8309-4137-b018-8555315d79a3" x="45.18" y="4.76" width="1.84" height="1.09"/> <rect class="66675395-76a2-40bf-9d1e-b3e8070f693a" x="27.96" width="9.91" height="10.93"/> <rect class="2ecdf2e1-8309-4137-b018-8555315d79a3" x="28.69" y="4.76" width="1.84" height="1.09"/> <rect class="2ecdf2e1-8309-4137-b018-8555315d79a3" x="31.99" y="4.76" width="1.84" height="1.09"/> <rect class="2ecdf2e1-8309-4137-b018-8555315d79a3" x="35.28" y="4.76" width="1.84" height="1.09"/> <rect class="66675395-76a2-40bf-9d1e-b3e8070f693a" x="18.06" width="9.91" height="10.93"/> <rect class="2ecdf2e1-8309-4137-b018-8555315d79a3" x="18.79" y="4.76" width="1.84" height="1.09"/> <rect class="2ecdf2e1-8309-4137-b018-8555315d79a3" x="22.09" y="4.76" width="1.84" height="1.09"/> <rect class="2ecdf2e1-8309-4137-b018-8555315d79a3" x="25.37" y="4.76" width="1.84" height="1.09"/> <path class="66675395-76a2-40bf-9d1e-b3e8070f693a" d="M921.44,2122.71H913.7a19.51,19.51,0,0,0-2.45.08,8.81,8.81,0,0,0-2.25.6l5.31,10.25h7.12v-10.93Z" transform="translate(-903.38 -2122.71)"/> <path class="adb8cdcf-6bc7-4853-ae09-63ce441c70f0" d="M914.12,2128.56l0-1.09c-0.69,0-1.39,0-2.06,0l0.4,1.06h1.71Z" transform="translate(-903.38 -2122.71)"/> <rect class="2ecdf2e1-8309-4137-b018-8555315d79a3" x="12.18" y="4.76" width="1.84" height="1.09"/> <rect class="2ecdf2e1-8309-4137-b018-8555315d79a3" x="15.47" y="4.76" width="1.84" height="1.09"/> <path class="66675395-76a2-40bf-9d1e-b3e8070f693a" d="M909,2123.39a9,9,0,0,0-5.51,7,15.16,15.16,0,0,0-.11,2.44v4.14h10.93v-3.29Z" transform="translate(-903.38 -2122.71)"/> <rect class="2ecdf2e1-8309-4137-b018-8555315d79a3" x="4.76" y="11.66" width="1.09" height="1.84"/> <path class="adb8cdcf-6bc7-4853-ae09-63ce441c70f0" d="M909.3,2131.25l-1-.49a10.36,10.36,0,0,0-.13,2l1.09,0.15A11.17,11.17,0,0,1,909.3,2131.25Z" transform="translate(-903.38 -2122.71)"/> <path class="adb8cdcf-6bc7-4853-ae09-63ce441c70f0" d="M911.09,2128.91l-0.65-.95a4.25,4.25,0,0,0-1.52,1.33l0.89,0.72A3.36,3.36,0,0,1,911.09,2128.91Z" transform="translate(-903.38 -2122.71)"/> <rect class="66675395-76a2-40bf-9d1e-b3e8070f693a" y="14.23" width="10.93" height="9.91"/> <rect class="2ecdf2e1-8309-4137-b018-8555315d79a3" x="4.76" y="21.56" width="1.09" height="1.84"/> <rect class="2ecdf2e1-8309-4137-b018-8555315d79a3" x="4.76" y="18.27" width="1.09" height="1.84"/> <rect class="2ecdf2e1-8309-4137-b018-8555315d79a3" x="4.76" y="14.98" width="1.09" height="1.84"/> <rect class="66675395-76a2-40bf-9d1e-b3e8070f693a" y="24.13" width="10.93" height="9.91"/> <rect class="2ecdf2e1-8309-4137-b018-8555315d79a3" x="4.76" y="31.47" width="1.09" height="1.84"/> <rect class="2ecdf2e1-8309-4137-b018-8555315d79a3" x="4.76" y="28.17" width="1.09" height="1.84"/> <rect class="2ecdf2e1-8309-4137-b018-8555315d79a3" x="4.76" y="24.88" width="1.09" height="1.84"/> <rect class="66675395-76a2-40bf-9d1e-b3e8070f693a" y="34.04" width="10.93" height="9.91"/> <rect class="2ecdf2e1-8309-4137-b018-8555315d79a3" x="4.76" y="41.38" width="1.09" height="1.84"/> <rect class="2ecdf2e1-8309-4137-b018-8555315d79a3" x="4.76" y="38.08" width="1.09" height="1.84"/> <rect class="2ecdf2e1-8309-4137-b018-8555315d79a3" x="4.76" y="34.79" width="1.09" height="1.84"/> <rect class="66675395-76a2-40bf-9d1e-b3e8070f693a" y="43.95" width="10.93" height="9.91"/> <rect class="2ecdf2e1-8309-4137-b018-8555315d79a3" x="4.76" y="51.28" width="1.09" height="1.84"/> <rect class="2ecdf2e1-8309-4137-b018-8555315d79a3" x="4.76" y="47.98" width="1.09" height="1.84"/> <rect class="2ecdf2e1-8309-4137-b018-8555315d79a3" x="4.76" y="44.7" width="1.09" height="1.84"/> <path class="66675395-76a2-40bf-9d1e-b3e8070f693a" d="M903.38,2176.56v9.31c0,0.38,0,.77.06,1.15l10.88-1.11v-9.35H903.38Z" transform="translate(-903.38 -2122.71)"/> <rect class="2ecdf2e1-8309-4137-b018-8555315d79a3" x="4.76" y="61.19" width="1.09" height="1.84"/> <rect class="2ecdf2e1-8309-4137-b018-8555315d79a3" x="4.76" y="57.89" width="1.09" height="1.84"/> <rect class="2ecdf2e1-8309-4137-b018-8555315d79a3" x="4.76" y="54.6" width="1.09" height="1.84"/> <path class="66675395-76a2-40bf-9d1e-b3e8070f693a" d="M903.45,2187a11.75,11.75,0,0,0,8.38,10.08,12.17,12.17,0,0,0,2.27.43l1.09,0h0.62l0-10.93h-0.77l-0.16,0a0.81,0.81,0,0,1-.28-0.15,0.8,0.8,0,0,1-.3-0.55Z" transform="translate(-903.38 -2122.71)"/> <path class="adb8cdcf-6bc7-4853-ae09-63ce441c70f0" d="M913.39,2191.46l-0.32,1a7.6,7.6,0,0,0,2,.31v-1.09A6.52,6.52,0,0,1,913.39,2191.46Z" transform="translate(-903.38 -2122.71)"/> <path class="adb8cdcf-6bc7-4853-ae09-63ce441c70f0" d="M910.81,2189.82l-0.8.74a6.7,6.7,0,0,0,1.58,1.28l0.56-.94A5.61,5.61,0,0,1,910.81,2189.82Z" transform="translate(-903.38 -2122.71)"/> <path class="adb8cdcf-6bc7-4853-ae09-63ce441c70f0" d="M909.39,2187.12l-1.07.24a7,7,0,0,0,.73,1.9l1-.54A6,6,0,0,1,909.39,2187.12Z" transform="translate(-903.38 -2122.71)"/> <rect class="66675395-76a2-40bf-9d1e-b3e8070f693a" x="915.29" y="2187.17" width="10.93" height="9.91" transform="translate(-2177.65 983.23) rotate(-89.82)"/> <rect class="2ecdf2e1-8309-4137-b018-8555315d79a3" x="923.52" y="2191.38" width="1.09" height="1.84" transform="translate(-2174.5 986.79) rotate(-89.82)"/> <rect class="2ecdf2e1-8309-4137-b018-8555315d79a3" x="920.22" y="2191.37" width="1.09" height="1.84" transform="translate(-2177.87 983.24) rotate(-89.81)"/> <rect class="2ecdf2e1-8309-4137-b018-8555315d79a3" x="916.93" y="2191.35" width="1.09" height="1.84" transform="translate(-2181.14 979.94) rotate(-89.81)"/> <rect class="66675395-76a2-40bf-9d1e-b3e8070f693a" x="925.2" y="2187.2" width="10.93" height="9.91" transform="translate(-2167.8 993.2) rotate(-89.82)"/> <rect class="2ecdf2e1-8309-4137-b018-8555315d79a3" x="933.42" y="2191.41" width="1.09" height="1.84" transform="translate(-2164.75 996.49) rotate(-89.81)"/> <rect class="2ecdf2e1-8309-4137-b018-8555315d79a3" x="930.13" y="2191.4" width="1.09" height="1.84" transform="translate(-2167.93 993.42) rotate(-89.82)"/> <rect class="2ecdf2e1-8309-4137-b018-8555315d79a3" x="926.84" y="2191.39" width="1.09" height="1.84" transform="translate(-2171.19 990.12) rotate(-89.82)"/> <rect class="66675395-76a2-40bf-9d1e-b3e8070f693a" x="935.11" y="2187.23" width="10.93" height="9.91" transform="translate(-2157.96 1003.11) rotate(-89.82)"/> <rect class="2ecdf2e1-8309-4137-b018-8555315d79a3" x="943.33" y="2191.44" width="1.09" height="1.84" transform="translate(-2154.91 1006.42) rotate(-89.81)"/> <rect class="2ecdf2e1-8309-4137-b018-8555315d79a3" x="940.03" y="2191.43" width="1.09" height="1.84" transform="translate(-2158.08 1003.36) rotate(-89.82)"/> <rect class="2ecdf2e1-8309-4137-b018-8555315d79a3" x="936.75" y="2191.42" width="1.09" height="1.84" transform="translate(-2161.35 1000.06) rotate(-89.82)"/> <rect class="66675395-76a2-40bf-9d1e-b3e8070f693a" x="945.02" y="2187.27" width="10.93" height="9.91" transform="translate(-2148.11 1013.07) rotate(-89.82)"/> <rect class="2ecdf2e1-8309-4137-b018-8555315d79a3" x="953.24" y="2191.47" width="1.09" height="1.84" transform="translate(-2144.96 1016.61) rotate(-89.82)"/> <rect class="2ecdf2e1-8309-4137-b018-8555315d79a3" x="949.94" y="2191.46" width="1.09" height="1.84" transform="translate(-2148.24 1013.3) rotate(-89.82)"/> <rect class="2ecdf2e1-8309-4137-b018-8555315d79a3" x="946.65" y="2191.45" width="1.09" height="1.84" transform="translate(-2151.5 1010) rotate(-89.82)"/> <rect class="66675395-76a2-40bf-9d1e-b3e8070f693a" x="954.92" y="2187.3" width="10.93" height="9.91" transform="matrix(0, -1, 1, 0, -2138.27, 1022.99)"/> <rect class="2ecdf2e1-8309-4137-b018-8555315d79a3" x="963.15" y="2191.5" width="1.09" height="1.84" transform="translate(-2135.11 1026.55) rotate(-89.82)"/> <rect class="2ecdf2e1-8309-4137-b018-8555315d79a3" x="959.85" y="2191.49" width="1.09" height="1.84" transform="translate(-2138.5 1022.99) rotate(-89.81)"/> <rect class="2ecdf2e1-8309-4137-b018-8555315d79a3" x="956.56" y="2191.48" width="1.09" height="1.84" transform="translate(-2141.76 1019.7) rotate(-89.81)"/> </g> <g class="ab259eaf-c92b-44fe-9dfe-1747673f0af2"> <rect class="66675395-76a2-40bf-9d1e-b3e8070f693a" x="65.88" y="13.67" width="8.84" height="10.93"/> <rect class="2ecdf2e1-8309-4137-b018-8555315d79a3" x="66.53" y="18.42" width="1.64" height="1.09"/> <rect class="2ecdf2e1-8309-4137-b018-8555315d79a3" x="69.48" y="18.43" width="1.64" height="1.09"/> <rect class="2ecdf2e1-8309-4137-b018-8555315d79a3" x="72.41" y="18.43" width="1.64" height="1.09"/> <rect class="66675395-76a2-40bf-9d1e-b3e8070f693a" x="57.04" y="13.66" width="8.84" height="10.93"/> <rect class="2ecdf2e1-8309-4137-b018-8555315d79a3" x="57.7" y="18.42" width="1.64" height="1.09"/> <rect class="2ecdf2e1-8309-4137-b018-8555315d79a3" x="60.64" y="18.42" width="1.64" height="1.09"/> <rect class="2ecdf2e1-8309-4137-b018-8555315d79a3" x="63.57" y="18.42" width="1.64" height="1.09"/> </g> </g> <rect class="0a9dbf37-5b6e-4802-836e-acd7df522fc4" x="930.75" y="2171.32" width="19.38" height="1.14" rx="0.42" ry="0.42" transform="translate(2208.94 -891.26) rotate(90)"/> <rect class="0a9dbf37-5b6e-4802-836e-acd7df522fc4" x="938.68" y="2174.38" width="13.25" height="1.14" rx="0.35" ry="0.35" transform="translate(2216.87 -893.05) rotate(90)"/> <rect class="0a9dbf37-5b6e-4802-836e-acd7df522fc4" x="928.35" y="2174.38" width="13.25" height="1.14" rx="0.35" ry="0.35" transform="translate(2206.54 -882.73) rotate(90)"/> <rect class="0a9dbf37-5b6e-4802-836e-acd7df522fc4" x="921.86" y="2173.36" width="15.29" height="1.14" rx="0.38" ry="0.38" transform="translate(2200.05 -878.28) rotate(90)"/> <rect class="0a9dbf37-5b6e-4802-836e-acd7df522fc4" x="917.41" y="2174.38" width="13.25" height="1.14" rx="0.35" ry="0.35" transform="translate(2195.61 -871.79) rotate(90)"/> <path class="d08651ec-4535-46b4-9abc-4f6f63f38c00" d="M931.64,2142.87h1.1l3.9,7.69h-1.1Z" transform="translate(-903.38 -2122.71)"/> </svg>