<svg id="31b9a906-9d7f-4c7b-8c57-2734f622f94f" data-name="Слой 1" xmlns="http://www.w3.org/2000/svg" viewBox="0 0 100 100"><defs><style>.a29310e3-2c97-4163-a5e9-866a78d7d82a{opacity:0.53;}.c51cd132-d677-43a1-ace3-ac3940d165c0{fill:none;}.\33 0391ec1-f245-48e1-bbee-17112efdc63b,.\34 33de213-1e0c-4fe5-a766-8d7a007ea9fe{fill:#1e0e00;}.\33 0391ec1-f245-48e1-bbee-17112efdc63b{fill-rule:evenodd;}.\33 b7677d2-9519-4e95-b905-f6cd088692ec{fill:#131877;}</style></defs><title>Sequrity</title><g class="a29310e3-2c97-4163-a5e9-866a78d7d82a"><path class="c51cd132-d677-43a1-ace3-ac3940d165c0" d="M47.28,16a3.68,3.68,0,0,1,1.63-1.5,3.72,3.72,0,0,1,2.24-.32L53.41-.43a18.58,18.58,0,0,0-18.95,9Z"/><path class="30391ec1-f245-48e1-bbee-17112efdc63b" d="M48.73,6.37,49,7.83a7.37,7.37,0,0,1,1.14-.11,6,6,0,0,1,1.14,0l.1-1.48a7.24,7.24,0,0,0-1.3,0A8.76,8.76,0,0,0,48.73,6.37Z"/><path class="30391ec1-f245-48e1-bbee-17112efdc63b" d="M44.37,8l.78,1.26a5.35,5.35,0,0,1,1-.54,5.72,5.72,0,0,1,1.05-.43l-.48-1.4a6.94,6.94,0,0,0-1.21.49A6.53,6.53,0,0,0,44.37,8Z"/><path class="30391ec1-f245-48e1-bbee-17112efdc63b" d="M41,11.17l1.21.85a5.09,5.09,0,0,1,.71-.89,6,6,0,0,1,.79-.81l-1-1.1a7.32,7.32,0,0,0-.91.93A6.22,6.22,0,0,0,41,11.17Z"/><path class="c51cd132-d677-43a1-ace3-ac3940d165c0" d="M51.15,14.2a3.84,3.84,0,0,1,2,.95,4.63,4.63,0,0,0,.38.41,2.41,2.41,0,0,0,.15.26l.09.12a.83.83,0,0,1,.13.18L55.55,19l12.83-7.39L66.7,8.73c0-.09-.22-.35-.33-.52L66,7.63,65.21,6.5c-.6-.71-1.21-1.42-1.88-2.07A18.66,18.66,0,0,0,53.41-.43Z"/><rect class="433de213-1e0c-4fe5-a766-8d7a007ea9fe" x="59.91" y="12.26" width="1.48" height="2.49" transform="translate(1.38 32.18) rotate(-30.04)"/><path class="30391ec1-f245-48e1-bbee-17112efdc63b" d="M57.6,8.56,56.7,9.74l.86.74c.28.26.51.56.77.84l1.14-1c-.3-.32-.56-.66-.88-1Z"/><path class="30391ec1-f245-48e1-bbee-17112efdc63b" d="M53.41,6.57,53.05,8a11.13,11.13,0,0,1,2.13.8l.67-1.32A12.6,12.6,0,0,0,53.41,6.57Z"/><rect class="c51cd132-d677-43a1-ace3-ac3940d165c0" x="57.91" y="14.44" width="14.81" height="13.44" transform="translate(-1.84 35.43) rotate(-29.95)"/><rect class="433de213-1e0c-4fe5-a766-8d7a007ea9fe" x="66.62" y="23.9" width="1.48" height="2.49" transform="translate(-3.56 36.99) rotate(-29.95)"/><rect class="433de213-1e0c-4fe5-a766-8d7a007ea9fe" x="64.39" y="20.03" width="1.48" height="2.49" transform="translate(-1.92 35.36) rotate(-29.95)"/><rect class="433de213-1e0c-4fe5-a766-8d7a007ea9fe" x="62.16" y="16.16" width="1.48" height="2.49" transform="translate(-0.29 33.72) rotate(-29.94)"/><rect class="c51cd132-d677-43a1-ace3-ac3940d165c0" x="64.62" y="26.09" width="14.81" height="13.44" transform="translate(-6.76 40.33) rotate(-29.95)"/><rect class="433de213-1e0c-4fe5-a766-8d7a007ea9fe" x="73.33" y="35.55" width="1.48" height="2.49" transform="translate(-8.48 41.89) rotate(-29.94)"/><rect class="433de213-1e0c-4fe5-a766-8d7a007ea9fe" x="71.1" y="31.67" width="1.48" height="2.49" transform="translate(-6.84 40.26) rotate(-29.95)"/><rect class="433de213-1e0c-4fe5-a766-8d7a007ea9fe" x="68.87" y="27.81" width="1.48" height="2.49" transform="translate(-5.21 38.63) rotate(-29.94)"/><rect class="c51cd132-d677-43a1-ace3-ac3940d165c0" x="71.33" y="37.73" width="14.81" height="13.44" transform="translate(-11.68 45.24) rotate(-29.95)"/><rect class="433de213-1e0c-4fe5-a766-8d7a007ea9fe" x="80.04" y="47.19" width="1.48" height="2.49" transform="translate(-13.4 46.79) rotate(-29.95)"/><rect class="433de213-1e0c-4fe5-a766-8d7a007ea9fe" x="77.81" y="43.32" width="1.48" height="2.49" transform="translate(-11.76 45.16) rotate(-29.95)"/><rect class="433de213-1e0c-4fe5-a766-8d7a007ea9fe" x="75.58" y="39.45" width="1.48" height="2.49" transform="translate(-10.13 43.54) rotate(-29.95)"/><rect class="c51cd132-d677-43a1-ace3-ac3940d165c0" x="78.04" y="49.38" width="14.81" height="13.44" transform="translate(-16.6 50.14) rotate(-29.95)"/><rect class="433de213-1e0c-4fe5-a766-8d7a007ea9fe" x="86.75" y="58.84" width="1.48" height="2.49" transform="translate(-18.31 51.69) rotate(-29.94)"/><rect class="433de213-1e0c-4fe5-a766-8d7a007ea9fe" x="84.51" y="54.96" width="1.48" height="2.49" transform="translate(-16.68 50.07) rotate(-29.95)"/><rect class="433de213-1e0c-4fe5-a766-8d7a007ea9fe" x="82.29" y="51.1" width="1.48" height="2.49" transform="translate(-15.05 48.44) rotate(-29.95)"/><rect class="c51cd132-d677-43a1-ace3-ac3940d165c0" x="84.75" y="61.02" width="14.81" height="13.44" transform="translate(-21.51 55.04) rotate(-29.95)"/><rect class="433de213-1e0c-4fe5-a766-8d7a007ea9fe" x="93.46" y="70.48" width="1.48" height="2.49" transform="translate(-23.23 56.59) rotate(-29.94)"/><rect class="433de213-1e0c-4fe5-a766-8d7a007ea9fe" x="91.22" y="66.61" width="1.48" height="2.49" transform="translate(-21.59 54.97) rotate(-29.95)"/><rect class="433de213-1e0c-4fe5-a766-8d7a007ea9fe" x="89" y="62.74" width="1.48" height="2.49" transform="translate(-19.96 53.34) rotate(-29.95)"/><path class="c51cd132-d677-43a1-ace3-ac3940d165c0" d="M89.09,77.26a3.78,3.78,0,0,1-.36,4.26l11.54,9.28a18.58,18.58,0,0,0,1.65-20.93Z"/><path class="30391ec1-f245-48e1-bbee-17112efdc63b" d="M96.72,83.34l-1.38-.54a7.37,7.37,0,0,1-.47,1,6,6,0,0,1-.58,1l1.23.82a7.24,7.24,0,0,0,.67-1.12A8.74,8.74,0,0,0,96.72,83.34Z"/><path class="30391ec1-f245-48e1-bbee-17112efdc63b" d="M97.51,78.76l-1.48,0a5.35,5.35,0,0,1,0,1.14,5.71,5.71,0,0,1-.15,1.13l1.45.29a6.94,6.94,0,0,0,.18-1.29A6.54,6.54,0,0,0,97.51,78.76Z"/><path class="30391ec1-f245-48e1-bbee-17112efdc63b" d="M96.43,74.26l-1.34.62a5.1,5.1,0,0,1,.42,1.06A6.05,6.05,0,0,1,95.81,77l1.45-.31a7.32,7.32,0,0,0-.35-1.26A6.22,6.22,0,0,0,96.43,74.26Z"/><path class="c51cd132-d677-43a1-ace3-ac3940d165c0" d="M88.73,81.52a3.84,3.84,0,0,1-1.8,1.23,4.62,4.62,0,0,0-.55.12h-.3l-.15,0a.84.84,0,0,1-.22,0H82.35V97.72h3.36l.62,0,.69,0,1.37-.11c.91-.17,1.84-.33,2.73-.59a18.66,18.66,0,0,0,9.17-6.16Z"/><rect class="433de213-1e0c-4fe5-a766-8d7a007ea9fe" x="83.33" y="89.36" width="2.49" height="1.48"/><path class="30391ec1-f245-48e1-bbee-17112efdc63b" d="M90.39,89.92l-.58-1.36-1.07.38c-.36.11-.74.16-1.11.25l.26,1.46c.42-.1.86-.16,1.27-.28Z"/><path class="30391ec1-f245-48e1-bbee-17112efdc63b" d="M94.21,87.29l-1.07-1a11.13,11.13,0,0,1-1.76,1.44l.81,1.24A12.61,12.61,0,0,0,94.21,87.29Z"/><rect class="c51cd132-d677-43a1-ace3-ac3940d165c0" x="68.9" y="82.91" width="13.44" height="14.81"/><rect class="433de213-1e0c-4fe5-a766-8d7a007ea9fe" x="69.89" y="89.35" width="2.49" height="1.48"/><rect class="433de213-1e0c-4fe5-a766-8d7a007ea9fe" x="74.37" y="89.35" width="2.49" height="1.48"/><rect class="433de213-1e0c-4fe5-a766-8d7a007ea9fe" x="78.83" y="89.36" width="2.49" height="1.48"/><rect class="c51cd132-d677-43a1-ace3-ac3940d165c0" x="55.46" y="82.89" width="13.44" height="14.81"/><rect class="433de213-1e0c-4fe5-a766-8d7a007ea9fe" x="56.46" y="89.33" width="2.49" height="1.48"/><rect class="433de213-1e0c-4fe5-a766-8d7a007ea9fe" x="60.93" y="89.34" width="2.49" height="1.48"/><rect class="433de213-1e0c-4fe5-a766-8d7a007ea9fe" x="65.39" y="89.34" width="2.49" height="1.48"/><rect class="c51cd132-d677-43a1-ace3-ac3940d165c0" x="42.02" y="82.88" width="13.44" height="14.81"/><rect class="433de213-1e0c-4fe5-a766-8d7a007ea9fe" x="43.02" y="89.32" width="2.49" height="1.48"/><rect class="433de213-1e0c-4fe5-a766-8d7a007ea9fe" x="47.49" y="89.33" width="2.49" height="1.48"/><rect class="433de213-1e0c-4fe5-a766-8d7a007ea9fe" x="51.95" y="89.33" width="2.49" height="1.48"/><rect class="c51cd132-d677-43a1-ace3-ac3940d165c0" x="28.58" y="82.87" width="13.44" height="14.81"/><rect class="433de213-1e0c-4fe5-a766-8d7a007ea9fe" x="29.58" y="89.31" width="2.49" height="1.48"/><rect class="433de213-1e0c-4fe5-a766-8d7a007ea9fe" x="34.05" y="89.31" width="2.49" height="1.48"/><rect class="433de213-1e0c-4fe5-a766-8d7a007ea9fe" x="38.51" y="89.32" width="2.49" height="1.48"/><rect class="c51cd132-d677-43a1-ace3-ac3940d165c0" x="15.15" y="82.85" width="13.44" height="14.81"/><rect class="433de213-1e0c-4fe5-a766-8d7a007ea9fe" x="16.14" y="89.3" width="2.49" height="1.48"/><rect class="433de213-1e0c-4fe5-a766-8d7a007ea9fe" x="20.61" y="89.3" width="2.49" height="1.48"/><rect class="433de213-1e0c-4fe5-a766-8d7a007ea9fe" x="25.07" y="89.3" width="2.49" height="1.48"/><path class="c51cd132-d677-43a1-ace3-ac3940d165c0" d="M15.15,82.85A3.68,3.68,0,0,1,13,82.19a3.72,3.72,0,0,1-1.4-1.78l-13.8,5.36a18.58,18.58,0,0,0,17.3,11.89Z"/><path class="30391ec1-f245-48e1-bbee-17112efdc63b" d="M6.07,86.42l1.15-.93a7.37,7.37,0,0,1-.66-.93,6,6,0,0,1-.56-1l-1.33.65a7.25,7.25,0,0,0,.64,1.14A8.74,8.74,0,0,0,6.07,86.42Z"/><path class="30391ec1-f245-48e1-bbee-17112efdc63b" d="M9.64,89.39l.7-1.31a5.35,5.35,0,0,1-1-.59,5.72,5.72,0,0,1-.9-.7l-1,1.12a6.94,6.94,0,0,0,1,.8A6.53,6.53,0,0,0,9.64,89.39Z"/><path class="30391ec1-f245-48e1-bbee-17112efdc63b" d="M14.08,90.7l.13-1.47a5.1,5.1,0,0,1-1.13-.16,6.06,6.06,0,0,1-1.1-.28l-.45,1.41a7.32,7.32,0,0,0,1.26.32A6.22,6.22,0,0,0,14.08,90.7Z"/><path class="c51cd132-d677-43a1-ace3-ac3940d165c0" d="M11.64,80.41a3.84,3.84,0,0,1-.16-2.18,4.64,4.64,0,0,0,.16-.54,2.38,2.38,0,0,0,.15-.26l.06-.14a.84.84,0,0,1,.09-.2l1.68-2.91L.81,66.77-.87,69.68c-.05.08-.2.37-.29.55l-.31.62-.59,1.24c-.31.88-.63,1.76-.85,2.66a18.66,18.66,0,0,0,.75,11Z"/><rect class="433de213-1e0c-4fe5-a766-8d7a007ea9fe" x="5.04" y="71.78" width="2.49" height="1.48" transform="translate(-59.68 41.75) rotate(-60.04)"/><path class="30391ec1-f245-48e1-bbee-17112efdc63b" d="M3.53,77.64,5,77.83l.21-1.12c.08-.37.23-.72.34-1.09l-1.39-.51c-.13.42-.29.82-.39,1.25Z"/><path class="30391ec1-f245-48e1-bbee-17112efdc63b" d="M3.9,82.27l1.42-.41A11.13,11.13,0,0,1,5,79.62l-1.48.08A12.61,12.61,0,0,0,3.9,82.27Z"/><rect class="c51cd132-d677-43a1-ace3-ac3940d165c0" x="3.87" y="57.26" width="13.44" height="14.81" transform="translate(-50.68 41.44) rotate(-59.95)"/><rect class="433de213-1e0c-4fe5-a766-8d7a007ea9fe" x="11.77" y="60.15" width="2.49" height="1.48" transform="translate(-46.21 41.66) rotate(-59.95)"/><rect class="433de213-1e0c-4fe5-a766-8d7a007ea9fe" x="9.53" y="64.02" width="2.49" height="1.48" transform="translate(-50.68 41.66) rotate(-59.95)"/><rect class="433de213-1e0c-4fe5-a766-8d7a007ea9fe" x="7.3" y="67.88" width="2.49" height="1.48" transform="translate(-55.13 41.65) rotate(-59.95)"/><rect class="c51cd132-d677-43a1-ace3-ac3940d165c0" x="10.6" y="45.63" width="13.44" height="14.81" transform="translate(-37.26 41.46) rotate(-59.95)"/><rect class="433de213-1e0c-4fe5-a766-8d7a007ea9fe" x="18.5" y="48.52" width="2.49" height="1.48" transform="translate(-32.78 41.68) rotate(-59.94)"/><rect class="433de213-1e0c-4fe5-a766-8d7a007ea9fe" x="16.26" y="52.39" width="2.49" height="1.48" transform="translate(-37.25 41.68) rotate(-59.95)"/><rect class="433de213-1e0c-4fe5-a766-8d7a007ea9fe" x="14.03" y="56.25" width="2.49" height="1.48" transform="translate(-41.71 41.67) rotate(-59.95)"/><rect class="c51cd132-d677-43a1-ace3-ac3940d165c0" x="17.33" y="33.99" width="13.44" height="14.81" transform="translate(-23.83 41.48) rotate(-59.95)"/><rect class="433de213-1e0c-4fe5-a766-8d7a007ea9fe" x="25.23" y="36.89" width="2.49" height="1.48" transform="translate(-19.35 41.7) rotate(-59.95)"/><rect class="433de213-1e0c-4fe5-a766-8d7a007ea9fe" x="22.99" y="40.76" width="2.49" height="1.48" transform="translate(-23.82 41.7) rotate(-59.95)"/><rect class="433de213-1e0c-4fe5-a766-8d7a007ea9fe" x="20.76" y="44.62" width="2.49" height="1.48" transform="translate(-28.28 41.69) rotate(-59.95)"/><rect class="c51cd132-d677-43a1-ace3-ac3940d165c0" x="24.06" y="22.36" width="13.44" height="14.81" transform="translate(-10.4 41.5) rotate(-59.95)"/><rect class="433de213-1e0c-4fe5-a766-8d7a007ea9fe" x="31.96" y="25.26" width="2.49" height="1.48" transform="translate(-5.92 41.72) rotate(-59.95)"/><rect class="433de213-1e0c-4fe5-a766-8d7a007ea9fe" x="29.72" y="29.13" width="2.49" height="1.48" transform="translate(-10.39 41.71) rotate(-59.95)"/><rect class="433de213-1e0c-4fe5-a766-8d7a007ea9fe" x="27.49" y="32.99" width="2.49" height="1.48" transform="translate(-14.85 41.71) rotate(-59.95)"/><rect class="c51cd132-d677-43a1-ace3-ac3940d165c0" x="30.79" y="10.73" width="13.44" height="14.81" transform="translate(3.03 41.52) rotate(-59.95)"/><rect class="433de213-1e0c-4fe5-a766-8d7a007ea9fe" x="38.69" y="13.62" width="2.49" height="1.48" transform="translate(7.5 41.74) rotate(-59.95)"/><rect class="433de213-1e0c-4fe5-a766-8d7a007ea9fe" x="36.45" y="17.5" width="2.49" height="1.48" transform="translate(3.03 41.73) rotate(-59.95)"/><rect class="433de213-1e0c-4fe5-a766-8d7a007ea9fe" x="34.22" y="21.36" width="2.49" height="1.48" transform="translate(-1.42 41.72) rotate(-59.95)"/></g><path class="3b7677d2-9519-4e95-b905-f6cd088692ec" d="M61,66.8q0-7.73,0-15.46V51h-.82c-.58,0-1.16,0-1.74,0-.22,0-.28-.06-.28-.28,0-1,0-1.93,0-2.89a8.24,8.24,0,0,0-4.46-7.14,7.74,7.74,0,0,0-3.22-.95,1.61,1.61,0,0,1-.24-.05h-1c-.47.08-.94.13-1.41.23a8.39,8.39,0,0,0-5.42,4L44.81,47a5.09,5.09,0,0,1,9.93,0,9,9,0,0,1,.12,1.56c0,.79,0,1.58,0,2.42H38.5v.33q0,8.14,0,16.29c0,.1,0,.2,0,.3l22.6,0C61.06,67.53,61,67.16,61,66.8Zm-9.88-7.29a.54.54,0,0,0-.25.5c0,.73,0,1.45,0,2.18A1.16,1.16,0,0,1,50,63.37a1.13,1.13,0,0,1-1.27-.73,1.65,1.65,0,0,1-.08-.48c0-.37,0-.73,0-1.1s0-.74,0-1.1a.44.44,0,0,0-.2-.41,2.26,2.26,0,0,1,.8-4,2.26,2.26,0,0,1,1.95,4Z"/></svg>