<svg id="f634039c-773c-4816-8dc4-93d6e9e32175" data-name="Слой 1" xmlns="http://www.w3.org/2000/svg" viewBox="0 0 80.09 47.32"> <defs> <style>.\34 5c5bf0c-9773-4c1d-9a0d-488f8e39628a{fill:#141460;}.\32 51c44f9-96dd-45c2-8dab-f724f8ea5b19,.\32 7013e4b-8c21-40a9-bf3b-62c9a04b8d65,.\34 0c1f990-9aa4-4ee1-8ea4-4317f37969d3,.\36 798aa08-ab34-4cb2-bf1f-8b8ecdb56b62{fill:none;stroke-miterlimit:10;}.\32 51c44f9-96dd-45c2-8dab-f724f8ea5b19,.\32 7013e4b-8c21-40a9-bf3b-62c9a04b8d65{stroke:#fff;}.\32 51c44f9-96dd-45c2-8dab-f724f8ea5b19{stroke-width:0.6px;}.\32 7013e4b-8c21-40a9-bf3b-62c9a04b8d65{stroke-width:0.15px;}.\34 0c1f990-9aa4-4ee1-8ea4-4317f37969d3,.\36 798aa08-ab34-4cb2-bf1f-8b8ecdb56b62{stroke:#131877;}.\36 798aa08-ab34-4cb2-bf1f-8b8ecdb56b62{stroke-width:0.78px;} </style> </defs> <polygon class="45c5bf0c-9773-4c1d-9a0d-488f8e39628a" points="58.12 13.26 58.12 17.66 61.94 19.85 65.76 17.66 65.76 13.26 61.94 11.06 58.12 13.26"/> <polyline class="251c44f9-96dd-45c2-8dab-f724f8ea5b19" points="62.2 20.03 62.22 15.25 58.16 12.97"/> <line class="251c44f9-96dd-45c2-8dab-f724f8ea5b19" x1="62.28" y1="15.16" x2="65.96" y2="12.94"/> <path class="27013e4b-8c21-40a9-bf3b-62c9a04b8d65" d="M982.8,688.8" transform="translate(-920.59 -672.93)"/> <polygon class="45c5bf0c-9773-4c1d-9a0d-488f8e39628a" points="14.41 28.95 14.41 33.35 18.23 35.55 22.05 33.35 22.05 28.95 18.23 26.75 14.41 28.95"/> <polyline class="251c44f9-96dd-45c2-8dab-f724f8ea5b19" points="18.49 35.72 18.5 30.94 14.45 28.66"/> <line class="251c44f9-96dd-45c2-8dab-f724f8ea5b19" x1="18.57" y1="30.85" x2="22.25" y2="28.63"/> <path class="27013e4b-8c21-40a9-bf3b-62c9a04b8d65" d="M939.09,704.49" transform="translate(-920.59 -672.93)"/> <path class="6798aa08-ab34-4cb2-bf1f-8b8ecdb56b62" d="M982.83,680.63v-5.32a2,2,0,0,1,3.4-1.41l13.49,13.49a2,2,0,0,1,0,2.81l-13.1,13.1a2,2,0,0,1-3.4-1.41V699a2,2,0,0,0-2-2H940.44a2,2,0,0,1-2-2v-4.11a2,2,0,0,0-3.4-1.41L921.57,703a2,2,0,0,0,0,2.81l13.49,13.49a2,2,0,0,0,3.4-1.41v-6.09" transform="translate(-920.59 -672.93)"/> <circle class="40c1f990-9aa4-4ee1-8ea4-4317f37969d3" cx="34.62" cy="34.17" r="0.39"/> <circle class="40c1f990-9aa4-4ee1-8ea4-4317f37969d3" cx="40.07" cy="34.17" r="0.39"/> <circle class="40c1f990-9aa4-4ee1-8ea4-4317f37969d3" cx="45.52" cy="34.17" r="0.39"/> <circle class="40c1f990-9aa4-4ee1-8ea4-4317f37969d3" cx="35.94" cy="15.42" r="0.39"/> <circle class="40c1f990-9aa4-4ee1-8ea4-4317f37969d3" cx="41.39" cy="15.42" r="0.39"/> <circle class="40c1f990-9aa4-4ee1-8ea4-4317f37969d3" cx="46.84" cy="15.42" r="0.39"/> </svg>